<?xml version="1.0" encoding="UTF-8" standalone="no"?>
<!-- Created with Inkscape (http://www.inkscape.org/) -->

<svg
   width="210mm"
   height="297mm"
   viewBox="0 0 210 297"
   version="1.1"
   id="svg5"
   xml:space="preserve"
   inkscape:version="1.2.1 (9c6d41e410, 2022-07-14)"
   sodipodi:docname="1.svg"
   xmlns:inkscape="http://www.inkscape.org/namespaces/inkscape"
   xmlns:sodipodi="http://sodipodi.sourceforge.net/DTD/sodipodi-0.dtd"
   xmlns:xlink="http://www.w3.org/1999/xlink"
   xmlns="http://www.w3.org/2000/svg"
   xmlns:svg="http://www.w3.org/2000/svg"><sodipodi:namedview
     id="namedview7"
     pagecolor="#ffffff"
     bordercolor="#000000"
     borderopacity="0.25"
     inkscape:showpageshadow="2"
     inkscape:pageopacity="0.0"
     inkscape:pagecheckerboard="0"
     inkscape:deskcolor="#d1d1d1"
     inkscape:document-units="mm"
     showgrid="false"
     inkscape:zoom="0.74564394"
     inkscape:cx="396.97231"
     inkscape:cy="561.25984"
     inkscape:window-width="1419"
     inkscape:window-height="1040"
     inkscape:window-x="327"
     inkscape:window-y="0"
     inkscape:window-maximized="0"
     inkscape:current-layer="layer1" /><defs
     id="defs2" /><g
     inkscape:label="Calque 1"
     inkscape:groupmode="layer"
     id="layer1"><image
       width="135.46666"
       height="135.46666"
       preserveAspectRatio="none"
       xlink:href="file:////iut.bx/Personnels/Home/wprivat/Downloads/capteur-biologique.png"
       id="image328"
       x="39.073124"
       y="79.169899" /><path
       style="fill:#000000;stroke-width:0.264583;fill-opacity:0"
       d="m 39.108882,182.68812 c 0.02174,-19.42297 0.123879,-31.03329 0.260527,-29.61419 1.225525,12.72713 5.806834,24.52242 13.500055,34.75799 2.366247,3.14821 7.469076,8.45952 10.809909,11.25155 10.180552,8.5082 23.355172,13.94711 36.956377,15.2568 1.4191,0.13665 -10.191216,0.23879 -29.61419,0.26053 l -31.948436,0.0358 z m 73.868278,31.65215 c 12.72713,-1.22552 24.52242,-5.80683 34.75798,-13.50005 3.14821,-2.36625 8.45952,-7.46908 11.25156,-10.80991 8.50819,-10.18055 13.94711,-23.35517 15.2568,-36.95638 0.13665,-1.4191 0.23879,10.19122 0.26053,29.61419 l 0.0358,31.94844 -31.94843,-0.0358 c -19.42298,-0.0217 -31.03329,-0.12388 -29.61419,-0.26053 z m -12.38841,-7.95224 c -8.373196,-0.84303 -18.051074,-4.16738 -25.267711,-8.67946 -7.621746,-4.76536 -14.55457,-11.69818 -19.319929,-19.31993 -5.675684,-9.07772 -8.990486,-20.64426 -8.990486,-31.37104 0,-2.55708 0.375263,-7.48089 0.669118,-8.77947 l 0.134713,-0.59532 7.072563,0.008 7.072563,0.008 0.923852,1.61261 c 4.876791,8.51261 17.740517,7.03433 20.64602,-2.3726 2.450846,-7.93491 -4.197686,-15.67239 -12.507893,-14.55654 -3.32486,0.44645 -6.894675,2.95507 -8.41605,5.91422 l -0.676988,1.31678 -6.165958,0.0711 -6.165958,0.0711 0.167341,-0.66674 c 1.235341,-4.92199 5.809184,-13.62102 9.939433,-18.9039 l 1.33016,-1.70134 v 2.8746 c 0,3.59627 0.483105,4.83267 2.216105,5.6716 0.619281,0.29979 1.407971,0.54507 1.752644,0.54507 1.151459,0 2.782113,-1.00342 3.390876,-2.08657 0.552919,-0.98378 0.577874,-1.32519 0.577874,-7.9056 v -6.87742 l 1.124479,-0.909873 c 0.618464,-0.500431 1.682107,-1.288951 2.363653,-1.752267 l 1.23917,-0.842391 0.08375,6.199611 c 0.07804,5.77706 0.120926,6.24937 0.629259,6.92957 1.408054,1.88411 3.218405,2.36978 5.123449,1.37447 2.107298,-1.10097 2.136244,-1.24637 2.136244,-10.73134 v -8.275694 l 1.521354,-0.673423 c 1.374044,-0.608216 5.76717,-2.230321 6.040352,-2.230321 0.06117,0 0.11121,15.656718 0.11121,34.792708 v 34.79271 H 84.501891 79.65982 l -0.586192,-1.20657 c -0.7405,-1.52416 -2.729828,-3.664 -4.215976,-4.53495 -4.658492,-2.73005 -10.418363,-1.95103 -14.062337,1.90193 -6.925663,7.32287 -1.83567,19.18542 8.232098,19.18542 1.98593,0 4.381454,-0.67807 5.983726,-1.69372 1.37087,-0.86898 3.372186,-3.0872 4.056954,-4.49666 l 0.58066,-1.19517 7.474592,-0.0775 c 7.07154,-0.0734 7.513963,-0.10695 8.204692,-0.62305 0.401556,-0.30003 0.975582,-0.87429 1.275615,-1.27613 0.544324,-0.72902 0.545666,-0.8142 0.615153,-39.05558 l 0.06964,-38.32497 0.724112,-0.149809 c 0.398261,-0.0824 2.033803,-0.270005 3.634533,-0.41691 14.65356,-1.344814 29.1834,2.868928 41.40729,12.008365 3.22559,2.411674 8.86033,8.046414 11.27201,11.272004 7.97993,10.67307 12.2759,23.31805 12.2759,36.13354 0,2.55708 -0.37526,7.4809 -0.66911,8.77948 l -0.13472,0.59532 -7.07256,-0.008 -7.07256,-0.008 -0.92385,-1.61262 c -4.8768,-8.5126 -17.74052,-7.03433 -20.64603,2.37261 -2.45084,7.93491 4.19769,15.67239 12.5079,14.55654 3.32486,-0.44645 6.89467,-2.95507 8.41605,-5.91422 l 0.67699,-1.31678 6.16595,-0.0711 6.16596,-0.0711 -0.16734,0.66673 c -1.23857,4.93485 -5.82634,13.6639 -9.93542,18.90391 l -1.33417,1.70134 v -4.4395 c 0,-4.9522 -0.20485,-5.78309 -1.68627,-6.83979 -1.15459,-0.82358 -3.41037,-0.82358 -4.56496,0 -1.63075,1.16321 -1.68627,1.51649 -1.68627,10.72894 v 8.32867 l -1.12448,0.90987 c -0.61846,0.50043 -1.68331,1.28978 -2.36633,1.75411 l -1.24186,0.84424 -0.0811,-7.60922 c -0.0911,-8.54912 -0.13126,-8.73932 -2.07763,-9.83324 -1.74919,-0.9831 -3.93585,-0.50619 -5.12838,1.11849 -0.52561,0.71609 -0.55337,1.15794 -0.68026,10.82731 l -0.13229,10.08077 -1.85209,0.77342 c -1.58582,0.66224 -6.15118,2.31049 -6.39963,2.31049 -0.0455,0 -0.0827,-15.47812 -0.0827,-34.39583 v -34.39583 h 5.01357 5.01357 l 0.85231,1.78593 c 2.1569,4.5196 7.12421,7.20168 11.91026,6.4309 8.34411,-1.34377 12.43923,-10.5571 7.7994,-17.5473 -3.09156,-4.65763 -9.22937,-6.34174 -14.31525,-3.92787 -1.94453,0.92291 -3.28004,2.0852 -4.59378,3.99792 l -0.9995,1.45521 -8.22984,0.13229 -8.22986,0.13229 -0.70745,0.66146 c -1.54571,1.44522 -1.45093,-1.15279 -1.45093,39.76789 v 37.67751 l -2.99206,0.30334 c -3.41605,0.34632 -8.47305,0.34307 -11.95689,-0.008 z m -7.648195,-11.86532 c 4.627607,-1.58328 7.780485,-5.9253 7.780485,-10.71498 v -1.66893 l 3.77031,-2.04338 c 2.07367,-1.12386 4.04952,-2.29507 4.39076,-2.60268 1.42808,-1.28733 1.36393,0.0235 1.36393,-27.87154 v -25.88331 l 5.57369,-4.62306 c 3.06553,-2.54268 5.7742,-4.60171 6.01927,-4.57561 0.24507,0.0261 1.10042,0.2901 1.90079,0.58667 1.74382,0.64618 4.83405,0.72982 6.64594,0.17989 3.89167,-1.18117 6.86373,-4.21885 7.90267,-8.07716 0.43476,-1.61457 0.39389,-4.42069 -0.088,-6.04346 -1.59713,-5.378114 -7.13823,-8.934708 -12.52852,-8.041509 -6.45275,1.069257 -10.81889,7.166349 -9.54092,13.323429 l 0.36633,1.76489 -6.57143,5.47019 c -3.61428,3.0086 -6.77698,5.8458 -7.02822,6.3049 -0.42115,0.76958 -0.46711,2.84379 -0.58908,26.58328 l -0.13229,25.74857 -2.618106,1.4112 -2.6181,1.4112 -1.047747,-0.75898 c -2.410471,-1.74614 -5.732867,-2.39906 -8.855286,-1.74024 -2.320864,0.48969 -4.009784,1.43232 -5.762847,3.21638 -6.95856,7.0816 -1.979007,19.06322 7.962225,19.15842 1.501473,0.0144 2.608399,-0.13928 3.704166,-0.51418 z m -5.808638,-8.2769 c -0.509739,-0.48075 -1.007571,-1.19591 -1.106292,-1.58924 -0.621263,-2.47531 1.786885,-4.92398 4.237588,-4.3089 0.361984,0.0909 1.077142,0.58418 1.589238,1.09628 0.792953,0.79295 0.931087,1.11017 0.931087,2.13821 0,2.19384 -1.340085,3.53773 -3.527713,3.53773 -0.991156,0 -1.356559,-0.15038 -2.123908,-0.87408 z m 37.820033,-79.42305 c -1.57589,-1.5759 -1.53487,-3.45439 0.10987,-5.03014 2.10168,-2.013536 5.64533,-0.36623 5.64533,2.62431 0,1.96837 -1.46034,3.32326 -3.58511,3.32622 -1.0736,0.002 -1.37678,-0.12708 -2.17009,-0.92039 z m -58.362161,58.86588 c -0.903298,-0.90329 -1.058187,-1.22305 -1.057343,-2.18281 0.0018,-2.02386 1.527455,-3.63802 3.438593,-3.63802 2.523199,0 4.207439,2.77475 3.046701,5.01936 -0.612304,1.18407 -1.758162,1.85981 -3.15369,1.85981 -1.065803,0 -1.346595,-0.13067 -2.274261,-1.05834 z M 139.47387,163.308 c -1.90656,-0.94376 -2.54591,-3.11665 -1.44241,-4.90214 0.56139,-0.90836 1.92658,-1.71305 2.90624,-1.71305 0.97966,0 2.34486,0.80469 2.90625,1.71305 1.0853,1.75606 0.43367,3.98916 -1.42688,4.88984 -1.38273,0.66937 -1.61384,0.67033 -2.9432,0.0123 z M 39.108882,111.11833 39.073124,79.169899 71.02156,79.205657 c 19.422974,0.02174 31.03329,0.123879 29.61419,0.260527 -8.537493,0.822095 -16.139483,2.983433 -23.727211,6.745936 -17.861117,8.856736 -30.888337,24.90935 -35.725582,44.02236 -0.853022,3.37048 -1.472541,6.95667 -1.813548,10.49805 -0.136648,1.41909 -0.238788,-10.19122 -0.260527,-29.6142 z m 135.165098,30.55938 c -0.002,-1.99854 -0.95899,-7.96955 -1.822,-11.36735 -2.21274,-8.71189 -6.2102,-17.02048 -11.70854,-24.33582 -2.36624,-3.14821 -7.46907,-8.459518 -10.8099,-11.251554 -10.18056,-8.508197 -23.35518,-13.947111 -36.95638,-15.256802 -1.4191,-0.136648 10.19121,-0.238788 29.61419,-0.260527 l 31.94843,-0.03576 v 31.882293 c 0,17.53526 -0.0595,31.88229 -0.13229,31.88229 -0.0728,0 -0.13284,-0.56555 -0.13351,-1.25677 z M 71.1555,136.6785 c -2.546538,-1.2554 -2.522524,-4.92708 0.04034,-6.16774 0.6145,-0.29748 1.280216,-0.54086 1.479368,-0.54086 0.771691,0 2.546918,1.08402 2.982341,1.82114 0.990097,1.6761 0.25705,4.06135 -1.505144,4.89756 -1.121608,0.53224 -1.902113,0.52961 -2.996903,-0.0101 z m 71.96666,-1.05834 c -1.13786,-0.56094 -1.91987,-1.87452 -1.91987,-3.22489 0,-1.36597 1.17581,-2.80996 2.64705,-3.25075 1.99609,-0.59804 4.23211,1.17112 4.23211,3.34851 0,1.2735 -0.82953,2.59967 -1.96238,3.13724 -1.12161,0.53224 -1.90212,0.52961 -2.99691,-0.0101 z"
       id="path386" /></g></svg>
