<?xml version="1.0" encoding="UTF-8" standalone="no"?>
<!-- Created with Inkscape (http://www.inkscape.org/) -->

<svg
   width="210mm"
   height="297mm"
   viewBox="0 0 210 297"
   version="1.1"
   id="svg5"
   xml:space="preserve"
   inkscape:version="1.2.1 (9c6d41e410, 2022-07-14)"
   sodipodi:docname="3.svg"
   xmlns:inkscape="http://www.inkscape.org/namespaces/inkscape"
   xmlns:sodipodi="http://sodipodi.sourceforge.net/DTD/sodipodi-0.dtd"
   xmlns:xlink="http://www.w3.org/1999/xlink"
   xmlns="http://www.w3.org/2000/svg"
   xmlns:svg="http://www.w3.org/2000/svg"><sodipodi:namedview
     id="namedview7"
     pagecolor="#ffffff"
     bordercolor="#000000"
     borderopacity="0.25"
     inkscape:showpageshadow="2"
     inkscape:pageopacity="0.0"
     inkscape:pagecheckerboard="0"
     inkscape:deskcolor="#d1d1d1"
     inkscape:document-units="mm"
     showgrid="false"
     inkscape:zoom="0.74564394"
     inkscape:cx="346.68021"
     inkscape:cy="561.9304"
     inkscape:window-width="1920"
     inkscape:window-height="1017"
     inkscape:window-x="-8"
     inkscape:window-y="-8"
     inkscape:window-maximized="1"
     inkscape:current-layer="layer1" /><defs
     id="defs2" /><g
     inkscape:label="Calque 1"
     inkscape:groupmode="layer"
     id="layer1"><image
       width="135.46666"
       height="135.46666"
       preserveAspectRatio="none"
       xlink:href="file:////iut.bx/Personnels/Home/wprivat/Downloads/puce-electronique.png"
       id="image4345"
       x="36.944092"
       y="71.718277"
       style="stroke:#000000;stroke-opacity:1" /><path
       style="fill:#ffffff;fill-opacity:1;stroke:#000000;stroke-width:0.670563;stroke-linecap:round;stroke-opacity:1;paint-order:markers fill stroke"
       d="m 68.538866,206.04464 c -0.508201,-0.56156 -0.587253,-1.6782 -0.587253,-8.29527 0,-6.21115 0.09561,-7.72569 0.509368,-8.06908 0.280151,-0.23251 1.996683,-0.94472 3.814513,-1.58269 l 3.305149,-1.15996 0.101685,-3.22531 0.101684,-3.22532 -5.306586,-0.11447 c -7.030368,-0.15166 -6.78388,0.0994 -6.78388,-6.91071 v -5.09086 h -3.13659 c -3.568925,0 -3.277918,-0.24899 -4.703472,4.02424 -1.361879,4.08235 -0.60798,3.78221 -9.500219,3.78221 -7.050915,0 -7.795783,-0.058 -8.330527,-0.64891 -0.613617,-0.67804 -0.767266,-2.06703 -0.30847,-2.78857 0.570061,-0.89653 2.445853,-1.17543 7.905607,-1.17543 3.109875,0 5.654318,-0.046 5.654318,-0.10211 0,-0.0562 0.490442,-1.53319 1.089871,-3.28226 1.501159,-4.38024 1.56676,-4.42208 6.933311,-4.42208 h 4.396171 v -3.01613 -3.01612 h -9.679109 c -10.864162,0 -11.256372,-0.0792 -11.256372,-2.27158 0,-2.30504 0.172307,-2.34133 11.116648,-2.34133 h 9.818833 v -3.01613 -3.01613 h -5.841015 c -5.551816,0 -5.876838,-0.0384 -6.564517,-0.77658 -0.950708,-1.02047 -0.915876,-2.11253 0.09776,-3.06479 0.773369,-0.72654 1.156142,-0.77153 6.564516,-0.77153 h 5.743257 v -3.01613 -3.01613 h -5.841015 c -5.551816,0 -5.876838,-0.0385 -6.564517,-0.77658 -0.397922,-0.42713 -0.723497,-1.11557 -0.723497,-1.52987 0,-0.4143 0.325575,-1.10274 0.723497,-1.52986 0.687679,-0.73814 1.012701,-0.77659 6.564517,-0.77659 h 5.841015 v -3.01613 -3.01613 H 53.81306 c -9.121415,0 -9.925605,-0.0498 -10.467742,-0.64891 -0.861142,-0.95155 -0.755494,-2.74139 0.201377,-3.41162 0.66698,-0.46717 2.281685,-0.55237 10.467742,-0.55237 h 9.679109 v -3.01613 -3.01613 h -4.396171 c -5.366551,0 -5.432152,-0.0418 -6.933311,-4.42207 -0.599429,-1.74908 -1.089871,-3.2261 -1.089871,-3.28226 0,-0.0562 -2.544443,-0.10212 -5.654318,-0.10212 -7.026907,0 -8.166171,-0.35068 -8.178959,-2.51759 -0.01156,-1.95972 0.566873,-2.09531 8.938736,-2.09531 6.211152,0 7.725701,0.0956 8.069091,0.50936 0.232505,0.28015 0.944716,1.99669 1.58269,3.81452 l 1.159951,3.30515 3.251081,0.10202 3.251081,0.10203 v -5.11917 c 0,-7.058122 -0.290605,-6.759465 6.722753,-6.909034 l 5.367713,-0.114475 -0.101684,-3.225316 -0.101685,-3.225318 -3.305149,-1.159952 c -1.81783,-0.637974 -3.534362,-1.350182 -3.814513,-1.582687 -0.413994,-0.343583 -0.509368,-1.866024 -0.509368,-8.130746 0,-7.01675 0.05819,-7.760674 0.648906,-8.295262 0.67804,-0.613616 2.067028,-0.767265 2.788571,-0.30847 0.89653,0.570064 1.175425,2.445854 1.175425,7.905607 0,3.109876 0.04595,5.654318 0.102118,5.654318 0.05617,0 1.533181,0.490442 3.28226,1.089872 4.380235,1.501161 4.422073,1.566759 4.422073,6.933311 v 4.396173 h 3.016129 3.016131 V 88.78863 c 0,-10.864162 0.07915,-11.256373 2.271577,-11.256373 2.305034,0 2.341324,0.172308 2.341324,11.116649 v 9.818835 h 3.016129 3.016131 v -5.841015 c 0,-5.551818 0.03845,-5.876838 0.776583,-6.564516 1.008632,-0.939681 2.20696,-0.919245 3.11282,0.05309 0.6668,0.715721 0.7235,1.230201 0.7235,6.564516 v 5.787929 h 3.01613 3.01613 v -5.792986 c 0,-5.596543 0.0279,-5.819147 0.82125,-6.564516 1.02756,-0.965337 2.01359,-0.981046 3.01506,-0.04803 0.73814,0.687678 0.77659,1.012698 0.77659,6.564516 v 5.841015 h 3.01613 3.01613 v -9.880488 c 0,-9.121415 0.0498,-9.925606 0.64891,-10.467742 0.95155,-0.861142 2.74139,-0.755494 3.41161,0.201377 0.46717,0.66698 0.55238,2.281687 0.55238,10.467742 v 9.679111 h 3.01613 3.01613 v -4.396173 c 0,-5.072282 0.17674,-5.457992 2.92742,-6.388497 0.92701,-0.313592 2.40403,-0.822891 3.28226,-1.131774 l 1.59677,-0.561607 v -5.62497 c 0,-6.995417 0.35261,-8.136835 2.51759,-8.149609 1.96101,-0.01156 2.09531,0.563613 2.09531,8.974003 0,8.821459 0.29819,8.077337 -3.78221,9.438563 -4.27322,1.425554 -4.02424,1.134546 -4.02424,4.703471 v 3.136593 h 5.09087 c 7.01014,0 6.75904,-0.246491 6.9107,6.783876 l 0.11448,5.30658 3.22532,-0.10168 3.22531,-0.10168 1.15995,-3.30515 c 0.63798,-1.81783 1.35019,-3.53437 1.58269,-3.81452 0.34359,-0.41399 1.86602,-0.50936 8.13075,-0.50936 7.01675,0 7.76067,0.0582 8.29526,0.6489 0.61362,0.67804 0.76727,2.06703 0.30847,2.78857 -0.57006,0.89653 -2.44586,1.17543 -7.90561,1.17543 -3.10987,0 -5.65432,0.0459 -5.65432,0.10212 0,0.0562 -0.49044,1.53318 -1.08987,3.28226 -1.50116,4.38023 -1.56676,4.42207 -6.93331,4.42207 h -4.39617 v 3.01613 3.01613 h 9.67911 c 10.86416,0 11.25637,0.0791 11.25637,2.27158 0,2.30503 -0.1723,2.34132 -11.11665,2.34132 h -9.81883 v 3.01613 3.01613 h 5.84101 c 5.55182,0 5.87684,0.0385 6.56452,0.77659 0.95071,1.02046 0.91588,2.11252 -0.0978,3.06478 -0.77337,0.72655 -1.15614,0.77153 -6.56451,0.77153 h -5.74326 v 3.01613 3.01613 h 5.84101 c 5.55182,0 5.87684,0.0385 6.56452,0.77659 0.92055,0.98809 0.92055,2.07164 0,3.05973 -0.68768,0.73813 -1.0127,0.77658 -6.56452,0.77658 h -5.84101 v 3.01613 3.01613 h 9.88049 c 9.12141,0 9.9256,0.0498 10.46774,0.64891 0.86114,0.95155 0.75549,2.7414 -0.20138,3.41162 -0.66698,0.46717 -2.28168,0.55238 -10.46774,0.55238 h -9.67911 v 3.01612 3.01613 h 4.39617 c 5.36655,0 5.43215,0.0418 6.93331,4.42208 0.59943,1.74907 1.08987,3.22609 1.08987,3.28226 0,0.0562 2.64518,0.10211 5.87817,0.10211 6.97126,0 7.94207,0.30724 7.95511,2.51759 0.0116,1.96102 -0.56362,2.09532 -8.97401,2.09532 -8.82145,0 -8.07733,0.29818 -9.43856,-3.78221 -1.42555,-4.27323 -1.13454,-4.02424 -4.70347,-4.02424 h -3.13659 v 5.09086 c 0,7.00856 0.24445,6.75906 -6.77091,6.91051 l -5.29361,0.11427 v 3.11103 c 0,3.53942 -0.24613,3.2533 4.02424,4.6779 4.08235,1.36189 3.78221,0.60798 3.78221,9.50022 0,7.05092 -0.058,7.79579 -0.6489,8.33053 -0.67804,0.61362 -2.06703,0.76727 -2.78857,0.30847 -0.89477,-0.56894 -1.17543,-2.44509 -1.17543,-7.8574 v -5.60611 l -1.59677,-0.58046 c -0.87823,-0.31926 -2.35525,-0.84288 -3.28226,-1.16361 -2.76385,-0.95624 -2.92742,-1.31247 -2.92742,-6.37552 v -4.39618 h -3.01613 -3.01613 v 9.67911 c 0,10.86417 -0.0791,11.25638 -2.27158,11.25638 -2.30503,0 -2.34132,-0.17231 -2.34132,-11.11665 v -9.81884 h -3.01613 -3.01613 v 5.84102 c 0,5.55182 -0.0384,5.87683 -0.77659,6.56451 -1.02046,0.95071 -2.11253,0.91588 -3.06478,-0.0978 -0.72655,-0.77337 -0.77153,-1.15615 -0.77153,-6.56452 v -5.74326 h -3.01613 -3.01613 v 5.85484 c 0,5.38172 -0.0573,5.91219 -0.70968,6.56452 -0.90986,0.90986 -2.141022,0.90442 -3.12664,-0.0138 -0.738134,-0.68768 -0.776583,-1.0127 -0.776583,-6.56452 v -5.841 h -3.016131 -3.016129 v 9.88049 c 0,9.12142 -0.04985,9.9256 -0.648906,10.46774 -0.951553,0.86115 -2.741401,0.75549 -3.411619,-0.20138 -0.46717,-0.66698 -0.552376,-2.28168 -0.552376,-10.46774 v -9.67911 h -3.016131 -3.016129 v 4.39618 c 0,5.36655 -0.04184,5.43214 -4.422073,6.9333 -1.749079,0.59943 -3.226094,1.08988 -3.28226,1.08988 -0.05617,0 -0.102118,2.54444 -0.102118,5.65432 0,5.45974 -0.278895,7.33554 -1.175425,7.9056 -0.761722,0.48435 -2.252088,0.29081 -2.850224,-0.37012 z M 140.69355,139.45161 V 103.43548 H 104.67742 68.661289 v 36.01613 36.01613 h 36.016131 36.01613 z"
       id="path8075" /><path
       style="fill:#ffffff;fill-opacity:1;stroke:#000000;stroke-width:0.670563;stroke-linecap:round;stroke-opacity:1;paint-order:markers fill stroke"
       d="m 75.274192,168.85484 -0.935482,-0.93549 v -28.46774 -28.46774 l 0.935482,-0.93549 0.935485,-0.93548 h 28.467743 28.46774 l 0.93548,0.93548 0.93549,0.93549 v 28.46774 28.46774 l -0.93549,0.93549 -0.93548,0.93548 H 104.67742 76.209677 Z M 130.22581,139.45161 V 113.90322 H 104.67742 79.129031 l -0.09182,25.19355 c -0.0505,13.85646 -0.01519,25.3942 0.07847,25.63945 0.13498,0.35343 5.452433,0.42702 25.640209,0.35484 L 130.22581,165 Z"
       id="path8077" /><path
       style="fill:#ffffff;fill-opacity:1;stroke:#000000;stroke-width:0.670563;stroke-linecap:round;stroke-opacity:1;paint-order:markers fill stroke"
       d="m 86.548368,158.80511 c -1.532871,-0.63014 -1.589389,-1.38991 -1.485585,-19.97046 0.09148,-16.37488 0.143679,-17.67752 0.731914,-18.26576 0.588158,-0.58816 1.893652,-0.64067 18.274193,-0.73503 9.70243,-0.0559 17.99716,-0.0136 18.43272,0.0939 1.86179,0.45954 1.89663,0.84967 1.79022,20.0446 -0.0913,16.46754 -0.14334,17.77366 -0.7317,18.36202 -0.58921,0.5892 -1.87694,0.63838 -18.45161,0.7046 -9.80001,0.0392 -18.152077,-0.0661 -18.560152,-0.23382 z m 33.032272,-19.3535 v -14.90323 l -14.99193,-0.0925 -14.991937,-0.0926 v 14.84794 c 0,8.16637 0.10818,14.95612 0.240403,15.08834 0.13222,0.13222 6.87859,0.19875 14.991934,0.14785 l 14.75153,-0.0926 z"
       id="path8079" /></g></svg>
