<?xml version="1.0" encoding="UTF-8" standalone="no"?>
<!-- Created with Inkscape (http://www.inkscape.org/) -->

<svg
   width="210mm"
   height="297mm"
   viewBox="0 0 210 297"
   version="1.1"
   id="svg5"
   xml:space="preserve"
   inkscape:version="1.2.1 (9c6d41e410, 2022-07-14)"
   sodipodi:docname="6.svg"
   xmlns:inkscape="http://www.inkscape.org/namespaces/inkscape"
   xmlns:sodipodi="http://sodipodi.sourceforge.net/DTD/sodipodi-0.dtd"
   xmlns:xlink="http://www.w3.org/1999/xlink"
   xmlns="http://www.w3.org/2000/svg"
   xmlns:svg="http://www.w3.org/2000/svg"><sodipodi:namedview
     id="namedview7"
     pagecolor="#ffffff"
     bordercolor="#000000"
     borderopacity="0.25"
     inkscape:showpageshadow="2"
     inkscape:pageopacity="0.0"
     inkscape:pagecheckerboard="0"
     inkscape:deskcolor="#d1d1d1"
     inkscape:document-units="mm"
     showgrid="false"
     inkscape:zoom="1.0544998"
     inkscape:cx="477.47758"
     inkscape:cy="569.93848"
     inkscape:window-width="1920"
     inkscape:window-height="1017"
     inkscape:window-x="-8"
     inkscape:window-y="-8"
     inkscape:window-maximized="1"
     inkscape:current-layer="layer1" /><defs
     id="defs2" /><g
     inkscape:label="Calque 1"
     inkscape:groupmode="layer"
     id="layer1"><path
       style="fill:#ffffff;fill-opacity:1;stroke:#000000;stroke-width:0.633601;stroke-linecap:round;stroke-opacity:1;paint-order:markers fill stroke"
       d=""
       id="path13279"
       transform="scale(0.26458333)" /><path
       style="fill:#ffffff;fill-opacity:1;stroke:#000000;stroke-width:0.633601;stroke-linecap:round;stroke-opacity:1;paint-order:markers fill stroke"
       d=""
       id="path13331"
       transform="scale(0.26458333)" /><path
       style="fill:#ffffff;fill-opacity:1;stroke:#000000;stroke-width:0.633601;stroke-linecap:round;stroke-opacity:1;paint-order:markers fill stroke"
       d=""
       id="path13341"
       transform="scale(0.26458333)" /><image
       width="135.46666"
       height="135.46666"
       preserveAspectRatio="none"
       xlink:href="file:////iut.bx/Personnels/Home/wprivat/Downloads/puce-electronique-4.png"
       id="image14131"
       x="37.146572"
       y="84.568344" /><path
       style="fill:#ffffff;stroke-width:0.265;fill-opacity:1;stroke-dasharray:none"
       d="M 37.146572,152.30167 V 84.568344 H 104.8799 172.61323 V 152.30167 220.035 H 104.8799 37.146572 Z m 66.070018,67.09247 c -0.69654,-0.18732 -1.70857,-0.69811 -2.24895,-1.13509 -0.54039,-0.43699 -1.309951,-1.42038 -1.710134,-2.18533 -0.520734,-0.99538 -0.726868,-1.77715 -0.725019,-2.74966 0.0016,-0.86609 0.227801,-1.84249 0.62365,-2.69258 0.341585,-0.73355 1.009543,-1.6606 1.484343,-2.06013 0.4748,-0.39951 1.2081,-0.90471 1.62954,-1.12265 l 0.76627,-0.39625 -0.0704,-7.20091 -0.0704,-7.20091 h -4.762503 -4.762499 l -0.132292,7.36594 c -0.131982,7.34878 -0.133747,7.36713 -0.756915,7.87136 -0.343545,0.27797 -0.833503,0.50541 -1.0888,0.50541 -0.255294,0 -0.776015,-0.2453 -1.157155,-0.5451 l -0.692981,-0.5451 -0.0703,-7.32626 -0.0703,-7.32625 -4.828646,-0.0721 -4.828645,-0.0721 v 8.41657 c 0,8.20244 -0.01514,8.44658 -0.595313,9.59603 -0.39225,0.77714 -0.95631,1.3814 -1.653646,1.7715 -0.924994,0.51746 -1.445971,0.5926 -4.135088,0.5964 l -3.076754,0.004 -0.32334,0.78062 c -0.177837,0.42933 -0.73361,1.20305 -1.235054,1.71937 -0.501443,0.51632 -1.28266,1.13058 -1.736037,1.36503 -0.453376,0.23445 -1.514969,0.4889 -2.359093,0.56545 -1.302586,0.11811 -1.75559,0.0311 -2.994406,-0.57497 -0.802799,-0.39277 -1.823343,-1.15305 -2.267874,-1.6895 -0.444532,-0.53645 -0.995558,-1.61547 -1.224503,-2.39781 -0.25931,-0.88611 -0.353003,-1.81806 -0.248485,-2.47168 0.09228,-0.57708 0.395735,-1.49606 0.674348,-2.04219 0.278614,-0.54613 0.95141,-1.38353 1.495103,-1.8609 0.543693,-0.47737 1.380321,-1.03165 1.859173,-1.23172 0.478852,-0.20008 1.499542,-0.36261 2.2682,-0.36119 0.906777,0.002 1.865929,0.22068 2.731291,0.62365 0.733549,0.34158 1.626518,0.98026 1.984375,1.41928 0.357854,0.43901 0.853466,1.1704 1.10136,1.62531 l 0.450715,0.82709 h 2.658139 2.658139 v -8.30282 -8.30281 l -2.447396,-0.11488 c -1.865143,-0.0875 -2.730653,-0.259 -3.638021,-0.72068 -0.654843,-0.3332 -1.706663,-1.09938 -2.337379,-1.70263 -0.630714,-0.60324 -1.45619,-1.69212 -1.834393,-2.41972 -0.55436,-1.06651 -0.710004,-1.79727 -0.803034,-3.77032 l -0.115396,-2.44739 H 56.29727 47.994455 v 2.65814 2.65814 l 0.827094,0.45071 c 0.454901,0.2479 1.18629,0.74351 1.625308,1.10136 0.439018,0.35786 1.077694,1.25083 1.41928,1.98438 0.402965,0.86536 0.621973,1.82451 0.62365,2.73129 0.0014,0.76865 -0.161115,1.78935 -0.361192,2.2682 -0.200077,0.47885 -0.754351,1.31548 -1.23172,1.85917 -0.477369,0.54369 -1.314775,1.21649 -1.860902,1.4951 -0.546127,0.27862 -1.465113,0.58207 -2.042192,0.67435 -0.653615,0.10452 -1.585571,0.0108 -2.471675,-0.24848 -0.782343,-0.22895 -1.861359,-0.77997 -2.397812,-1.22451 -0.536453,-0.44453 -1.296729,-1.46507 -1.689502,-2.26787 -0.606096,-1.23882 -0.693079,-1.69182 -0.574965,-2.99441 0.07654,-0.84412 0.330992,-1.90571 0.565442,-2.35909 0.23445,-0.45338 0.848717,-1.23459 1.365036,-1.73604 0.51632,-0.50144 1.290038,-1.05721 1.719373,-1.23505 l 0.780611,-0.32334 0.0044,-3.07675 c 0.0038,-2.68912 0.07894,-3.2101 0.596402,-4.13509 0.3901,-0.69734 0.994361,-1.2614 1.771501,-1.65365 1.149445,-0.58017 1.393584,-0.59531 9.596025,-0.59531 h 8.416573 l -0.07211,-4.82865 -0.07211,-4.82864 -7.326254,-0.0703 -7.326254,-0.0703 -0.5451,-0.69298 c -0.299805,-0.38114 -0.5451,-0.90186 -0.5451,-1.15716 0,-0.25529 0.227435,-0.74525 0.50541,-1.0888 0.504232,-0.62316 0.52258,-0.62493 7.871354,-0.75691 l 7.365944,-0.13229 v -4.7625 -4.7625 l -7.200911,-0.0704 -7.20091,-0.0704 -0.396253,0.76626 c -0.217939,0.42145 -0.723132,1.15475 -1.122652,1.62955 -0.399519,0.4748 -1.326577,1.14275 -2.060128,1.48434 -0.850082,0.39585 -1.826485,0.622 -2.692578,0.62365 -0.972504,0.002 -1.754281,-0.20429 -2.749658,-0.72502 -0.764945,-0.40018 -1.748342,-1.16974 -2.185328,-1.71013 -0.436985,-0.54039 -0.947775,-1.55242 -1.135088,-2.24896 l -0.340569,-1.26643 -0.01786,1.34936 c -0.01439,1.08735 0.131706,1.55584 0.752365,2.41263 0.423622,0.58479 1.14662,1.33128 1.606662,1.65886 0.460041,0.32758 1.38252,0.75994 2.049952,0.96081 0.667433,0.20087 1.5897,0.36521 2.049483,0.36521 0.459783,0 1.435502,-0.17804 2.168264,-0.39565 0.769913,-0.22864 1.836052,-0.83907 2.525704,-1.44612 0.656374,-0.57777 1.343052,-1.41176 1.525951,-1.85331 l 0.332543,-0.80283 h 6.714775 6.714775 v 4.10104 4.10104 h -6.623081 c -5.216275,0 -6.819998,0.0823 -7.550147,0.38735 -0.62805,0.26242 -1.051154,0.68434 -1.311789,1.30813 -0.211599,0.50642 -0.31558,1.13579 -0.23107,1.39858 0.08451,0.2628 0.275002,0.73255 0.423315,1.0439 0.148313,0.31135 0.559838,0.6983 0.914499,0.8599 0.419736,0.19124 3.04191,0.29381 7.511556,0.29381 h 6.866717 v 4.22306 4.22306 l -8.686143,0.0764 -8.686142,0.0764 -0.971427,0.74128 c -0.534285,0.40771 -1.175228,1.12208 -1.424319,1.5875 -0.329603,0.61586 -0.480799,1.68005 -0.555402,3.90919 l -0.102509,3.06296 -0.920627,0.4958 c -0.506346,0.27268 -1.214481,0.84501 -1.573634,1.27184 -0.359153,0.42683 -0.907981,1.26617 -1.219617,1.8652 -0.42316,0.8134 -0.565602,1.55806 -0.562621,2.94123 0.0023,1.0806 0.174726,2.24585 0.413869,2.79737 0.225432,0.51991 0.810858,1.40198 1.300945,1.96016 0.490088,0.55817 1.487248,1.29249 2.215911,1.63181 0.91155,0.42449 1.810496,0.61776 2.881645,0.61954 0.856242,0.001 2.024147,-0.13744 2.595345,-0.30857 0.571197,-0.17114 1.572254,-0.78095 2.22457,-1.35514 0.652317,-0.57419 1.432385,-1.52688 1.733486,-2.11709 0.301101,-0.59021 0.608822,-1.74985 0.683824,-2.57699 0.09231,-1.01802 -0.0055,-1.93109 -0.302832,-2.82619 -0.241561,-0.72727 -0.839355,-1.7898 -1.328432,-2.36118 -0.489077,-0.57138 -1.31851,-1.27005 -1.843185,-1.5526 l -0.953954,-0.51374 v -2.18879 -2.18879 h 7.540625 7.540624 v 1.53947 c 0,0.84672 0.186635,2.18617 0.414745,2.97657 0.228108,0.79039 0.832006,2.05357 1.341996,2.80706 0.50999,0.75349 1.543743,1.78725 2.297234,2.29724 0.753491,0.50999 2.016673,1.11389 2.807068,1.34199 0.790397,0.22811 2.12985,0.41475 2.976562,0.41475 h 1.539478 v 7.54062 7.54063 H 73.0578 70.869011 L 70.355272,207.439 c -0.282556,-0.52467 -0.981228,-1.3541 -1.552604,-1.84318 -0.571378,-0.48908 -1.633905,-1.08687 -2.361176,-1.32843 -0.895104,-0.29731 -1.808173,-0.39515 -2.826194,-0.30283 -0.827138,0.075 -1.986784,0.38272 -2.57699,0.68382 -0.590207,0.3011 -1.542896,1.08117 -2.117088,1.73349 -0.574191,0.65231 -1.184004,1.65337 -1.355139,2.22456 -0.171135,0.5712 -0.309992,1.73911 -0.30857,2.59535 0.0018,1.07115 0.195045,1.9701 0.619533,2.88165 0.339321,0.72866 1.073639,1.72582 1.631818,2.2159 0.558179,0.49009 1.440249,1.07552 1.960155,1.30095 0.551527,0.23914 1.716768,0.41154 2.797367,0.41387 1.383178,0.003 2.12783,-0.13946 2.941233,-0.56262 0.599032,-0.31164 1.438373,-0.86047 1.865201,-1.21962 0.426831,-0.35915 0.999159,-1.06729 1.271844,-1.57363 l 0.495792,-0.92063 3.062965,-0.10251 c 2.229138,-0.0746 3.293329,-0.2258 3.909184,-0.5554 0.465421,-0.24909 1.179796,-0.89004 1.5875,-1.42432 l 0.741281,-0.97142 0.07642,-8.68615 0.07642,-8.68614 h 4.223062 4.223062 v 6.86672 c 0,4.57138 0.100696,7.08772 0.301244,7.52787 0.165683,0.36364 0.713825,0.85694 1.218094,1.09623 0.802437,0.38078 1.037236,0.38981 1.881569,0.0723 0.645229,-0.24261 1.117923,-0.66725 1.427329,-1.28222 0.403894,-0.80278 0.462661,-1.76738 0.463021,-7.6002 l 4.1e-4,-6.68073 h 4.101041 4.101044 v 6.71477 6.71478 l -0.80283,0.33254 c -0.44156,0.1829 -1.27554,0.86958 -1.853311,1.52595 -0.607055,0.68966 -1.217488,1.75579 -1.446128,2.52571 -0.217606,0.73276 -0.39565,1.70848 -0.39565,2.16826 0,0.45978 0.164346,1.38205 0.365215,2.04948 0.200867,0.66744 0.633233,1.58991 0.960811,2.04996 0.327578,0.46004 1.074063,1.18304 1.658863,1.60666 0.85679,0.62066 1.32528,0.76675 2.41262,0.75236 l 1.34937,-0.0179 z m 5.82218,-0.39394 c 0.58479,-0.42362 1.33128,-1.14662 1.65886,-1.60666 0.32757,-0.46005 0.75994,-1.38252 0.96081,-2.04996 0.20087,-0.66743 0.36521,-1.5897 0.36521,-2.04948 0,-0.45978 -0.17804,-1.4355 -0.39565,-2.16826 -0.22864,-0.76992 -0.83907,-1.83605 -1.44613,-2.52571 -0.57776,-0.65637 -1.41175,-1.34305 -1.8533,-1.52595 l -0.80283,-0.33254 v -6.71478 -6.71477 h 4.10104 4.10104 l 5.3e-4,6.68073 c 2.6e-4,5.83282 0.0591,6.79742 0.46302,7.6002 0.3094,0.61497 0.7821,1.03961 1.42733,1.28222 0.84433,0.31748 1.07913,0.30845 1.88157,-0.0723 0.50426,-0.23929 1.05241,-0.73259 1.21809,-1.09623 0.20043,-0.44015 0.30112,-2.95649 0.30112,-7.52787 v -6.86672 h 4.22307 4.22306 l 0.0764,8.68614 0.0764,8.68615 0.74128,0.97142 c 0.40771,0.53428 1.12208,1.17523 1.5875,1.42432 0.61586,0.3296 1.68005,0.4808 3.90919,0.5554 l 3.06296,0.10251 0.49579,0.92063 c 0.27269,0.50634 0.84502,1.21448 1.27185,1.57363 0.42683,0.35915 1.26617,0.90798 1.8652,1.21962 0.8134,0.42316 1.55805,0.5656 2.94123,0.56262 1.0806,-0.002 2.24584,-0.17473 2.79737,-0.41387 0.51991,-0.22543 1.40197,-0.81086 1.96015,-1.30095 0.55818,-0.49008 1.2925,-1.48724 1.63182,-2.2159 0.42449,-0.91155 0.61776,-1.8105 0.61953,-2.88165 10e-4,-0.85624 -0.13743,-2.02415 -0.30857,-2.59535 -0.17113,-0.57119 -0.78094,-1.57225 -1.35513,-2.22456 -0.5742,-0.65232 -1.52688,-1.43239 -2.11709,-1.73349 -0.59021,-0.3011 -1.74985,-0.60882 -2.57699,-0.68382 -1.01802,-0.0923 -1.93109,0.006 -2.8262,0.30283 -0.72727,0.24156 -1.78979,0.83935 -2.36117,1.32843 -0.57138,0.48908 -1.27005,1.31851 -1.55261,1.84318 l -0.51373,0.95396 h -2.18879 -2.1888 v -7.54063 -7.54062 h 1.53948 c 0.84671,0 2.18617,-0.18664 2.97656,-0.41475 0.7904,-0.2281 2.05358,-0.832 2.80707,-1.34199 0.75349,-0.50999 1.78725,-1.54375 2.29724,-2.29724 0.50999,-0.75349 1.11388,-2.01667 1.34199,-2.80706 0.22811,-0.7904 0.41475,-2.12985 0.41475,-2.97657 v -1.53947 h 7.54062 7.54063 v 2.18879 2.18879 l -0.95396,0.51374 c -0.52467,0.28255 -1.3541,0.98122 -1.84318,1.5526 -0.48908,0.57138 -1.08687,1.63391 -1.32844,2.36118 -0.2973,0.8951 -0.39514,1.80817 -0.30283,2.82619 0.075,0.82714 0.38273,1.98678 0.68383,2.57699 0.3011,0.59021 1.08117,1.5429 1.73348,2.11709 0.65232,0.57419 1.65338,1.184 2.22457,1.35514 0.5712,0.17113 1.73911,0.30999 2.59535,0.30857 1.07115,-0.002 1.97009,-0.19505 2.88164,-0.61954 0.72867,-0.33932 1.72583,-1.07364 2.21591,-1.63181 0.49009,-0.55818 1.07552,-1.44025 1.30095,-1.96016 0.23914,-0.55152 0.41154,-1.71677 0.41387,-2.79737 0.003,-1.38317 -0.13946,-2.12783 -0.56262,-2.94123 -0.31164,-0.59903 -0.86047,-1.43837 -1.21962,-1.8652 -0.35915,-0.42683 -1.06729,-0.99916 -1.57363,-1.27184 l -0.92063,-0.4958 -0.10251,-3.06296 c -0.0746,-2.22914 -0.2258,-3.29333 -0.5554,-3.90919 -0.24909,-0.46542 -0.89004,-1.17979 -1.42432,-1.5875 l -0.97143,-0.74128 -8.68614,-0.0764 -8.68614,-0.0764 v -4.22306 -4.22306 h 6.86671 c 4.46965,0 7.09182,-0.10257 7.51156,-0.29381 0.35466,-0.1616 0.76618,-0.54855 0.9145,-0.8599 0.14831,-0.31135 0.3388,-0.7811 0.42331,-1.0439 0.0845,-0.26279 -0.0195,-0.89216 -0.23107,-1.39858 -0.26063,-0.62379 -0.68374,-1.04571 -1.31178,-1.30813 -0.73015,-0.30507 -2.33388,-0.38735 -7.55015,-0.38735 h -6.62308 v -4.10104 -4.10104 h 6.71477 6.71478 l 0.33254,0.80283 c 0.1829,0.44155 0.86958,1.27554 1.52595,1.85331 0.68965,0.60705 1.75579,1.21748 2.5257,1.44612 0.73277,0.21761 1.70849,0.39565 2.16827,0.39565 0.45978,0 1.38205,-0.16434 2.04948,-0.36521 0.66744,-0.20087 1.58991,-0.63323 2.04995,-0.96081 0.46005,-0.32758 1.18304,-1.07407 1.60667,-1.65886 0.62066,-0.85679 0.76675,-1.32528 0.75236,-2.41263 l -0.0179,-1.34936 -0.34057,1.26643 c -0.18731,0.69654 -0.6981,1.70857 -1.13509,2.24896 -0.43698,0.54039 -1.42038,1.30995 -2.18532,1.71013 -0.99538,0.52073 -1.77715,0.72687 -2.74966,0.72502 -0.86609,-0.002 -1.8425,-0.2278 -2.69258,-0.62365 -0.73355,-0.34159 -1.66061,-1.00954 -2.06013,-1.48434 -0.39952,-0.4748 -0.90471,-1.2081 -1.12265,-1.62955 l -0.39625,-0.76626 -7.20091,0.0704 -7.20091,0.0704 v 4.7625 4.7625 l 7.36594,0.13229 c 7.34878,0.13198 7.36712,0.13375 7.87136,0.75691 0.27797,0.34355 0.50541,0.83351 0.50541,1.0888 0,0.2553 -0.2453,0.77602 -0.5451,1.15716 l -0.5451,0.69298 -7.32626,0.0703 -7.32625,0.0703 -0.0721,4.82864 -0.0721,4.82865 h 8.41657 c 8.20244,0 8.44658,0.0151 9.59603,0.59531 0.77714,0.39225 1.3814,0.95631 1.7715,1.65365 0.51746,0.92499 0.5926,1.44597 0.5964,4.13509 l 0.004,3.07675 0.78061,0.32334 c 0.42933,0.17784 1.20305,0.73361 1.71937,1.23505 0.51632,0.50145 1.13059,1.28266 1.36504,1.73604 0.23445,0.45338 0.4889,1.51497 0.56544,2.35909 0.11811,1.30259 0.0311,1.75559 -0.57497,2.99441 -0.39277,0.8028 -1.15305,1.82334 -1.6895,2.26787 -0.53645,0.44454 -1.61547,0.99556 -2.39781,1.22451 -0.88611,0.25931 -1.81806,0.353 -2.47168,0.24848 -0.57708,-0.0923 -1.49606,-0.39573 -2.04219,-0.67435 -0.54613,-0.27861 -1.38353,-0.95141 -1.8609,-1.4951 -0.47737,-0.54369 -1.03164,-1.38032 -1.23172,-1.85917 -0.20008,-0.47885 -0.36261,-1.49955 -0.36119,-2.2682 0.002,-0.91339 0.21871,-1.85588 0.62644,-2.72048 0.34312,-0.7276 0.90751,-1.57947 1.25418,-1.89304 0.34668,-0.31357 1.04705,-0.79976 1.55638,-1.08042 l 0.92604,-0.51028 0.0754,-2.6899 0.0754,-2.6899 h -8.31207 -8.31207 l -0.1154,2.44739 c -0.093,1.97305 -0.24867,2.70381 -0.80303,3.77032 -0.3782,0.7276 -1.20368,1.81648 -1.83439,2.41972 -0.63072,0.60325 -1.68254,1.36943 -2.33738,1.70263 -0.90737,0.46168 -1.77288,0.63314 -3.63802,0.72068 l -2.4474,0.11488 v 8.30281 8.30282 h 2.65814 2.65814 l 0.45071,-0.82709 c 0.2479,-0.45491 0.73412,-1.17514 1.0805,-1.60051 0.34637,-0.42538 1.20562,-1.06522 1.90943,-1.42187 0.90233,-0.45724 1.71384,-0.64845 2.75216,-0.64845 0.80987,0 1.86429,0.1637 2.34314,0.36378 0.47885,0.20007 1.31548,0.75435 1.85917,1.23172 0.54369,0.47737 1.21649,1.31477 1.4951,1.8609 0.27862,0.54613 0.58207,1.46511 0.67435,2.04219 0.10452,0.65362 0.0108,1.58557 -0.24848,2.47168 -0.22895,0.78234 -0.77997,1.86136 -1.22451,2.39781 -0.44453,0.53645 -1.46507,1.29673 -2.26787,1.6895 -1.23881,0.6061 -1.69182,0.69308 -2.9944,0.57497 -0.84413,-0.0765 -1.90572,-0.331 -2.3591,-0.56545 -0.45337,-0.23445 -1.23459,-0.84871 -1.73604,-1.36503 -0.50144,-0.51632 -1.05721,-1.29004 -1.23505,-1.71937 l -0.32335,-0.78062 -3.07676,-0.004 c -2.68911,-0.004 -3.21009,-0.0789 -4.13508,-0.5964 -0.69734,-0.3901 -1.2614,-0.99436 -1.65365,-1.77151 -0.58017,-1.14944 -0.59531,-1.39358 -0.59531,-9.59602 v -8.41657 l -4.82865,0.0721 -4.82864,0.0721 -0.0703,7.32625 -0.0703,7.32625 -0.69298,0.5451 c -0.38114,0.29982 -0.90186,0.54512 -1.15716,0.54512 -0.25529,0 -0.74525,-0.22744 -1.0888,-0.50541 -0.62317,-0.50423 -0.62493,-0.52258 -0.75691,-7.87136 l -0.13229,-7.36594 h -4.7625 -4.7625 l -0.0704,7.20091 -0.0704,7.20091 0.76627,0.39625 c 0.42145,0.21794 1.15474,0.72314 1.62955,1.12265 0.4748,0.39953 1.14275,1.32658 1.48434,2.06013 0.39585,0.85009 0.622,1.82649 0.62365,2.69258 0.002,0.97251 -0.20429,1.75428 -0.72502,2.74966 -0.40018,0.76495 -1.16974,1.74834 -1.71013,2.18533 -0.54039,0.43698 -1.55242,0.94777 -2.24896,1.13509 l -1.26643,0.34056 1.34936,0.0179 c 1.08734,0.0144 1.55583,-0.1317 2.41263,-0.75236 z m -2.43747,-3.79425 c 0.45741,-0.39345 0.74134,-0.95934 0.8362,-1.66658 0.12031,-0.89691 0.0279,-1.20841 -0.56904,-1.91781 -0.62039,-0.73729 -0.87791,-0.84697 -1.98856,-0.84697 -1.11064,0 -1.36817,0.10968 -1.98855,0.84697 -0.59692,0.7094 -0.68935,1.0209 -0.56905,1.91781 0.0949,0.70724 0.3788,1.27313 0.8362,1.66658 0.46159,0.39703 1.03571,0.59572 1.7214,0.59572 0.68569,0 1.25982,-0.19869 1.7214,-0.59572 z m -2.43171,-0.20234 c -0.3179,-0.12673 -0.70486,-0.46744 -0.85989,-0.75712 -0.15503,-0.28968 -0.28188,-0.82354 -0.28188,-1.18635 0,-0.39749 0.27705,-0.87758 0.69714,-1.20802 0.38342,-0.3016 0.90315,-0.54837 1.15494,-0.54837 0.2518,0 0.77152,0.24677 1.15495,0.54837 0.45833,0.36053 0.69714,0.80366 0.69714,1.29361 0,0.40988 -0.20836,0.9862 -0.46303,1.28072 -0.25466,0.29452 -0.70114,0.59671 -0.99218,0.67154 -0.29104,0.0748 -0.78928,0.0323 -1.10719,-0.0944 z m -38.707306,-1.71822 c 0.425022,-0.21979 0.895358,-0.62868 1.045194,-0.90865 0.149834,-0.27997 0.272426,-0.94274 0.272426,-1.47282 0,-0.71246 -0.201679,-1.16546 -0.773398,-1.73718 -0.560197,-0.5602 -1.028692,-0.7734 -1.69949,-0.7734 -0.610299,0 -1.203684,0.23357 -1.740145,0.68498 -0.670423,0.56412 -0.81405,0.88051 -0.81405,1.79321 0,0.60953 0.191333,1.3814 0.425185,1.71527 0.233852,0.33387 0.680336,0.71 0.992187,0.83585 0.311852,0.12585 0.781275,0.23636 1.043163,0.24558 0.261887,0.009 0.823904,-0.16305 1.248928,-0.38284 z m -2.530865,-1.04357 c -0.357187,-0.35719 -0.649432,-0.87691 -0.649432,-1.15494 0,-0.27803 0.246767,-0.81923 0.548371,-1.20265 0.392822,-0.4994 0.793966,-0.69714 1.4142,-0.69714 0.496721,0 1.03536,0.19739 1.263497,0.46302 0.218717,0.25466 0.474453,0.67892 0.568301,0.9428 0.09385,0.26388 -0.0027,0.815 -0.21458,1.22471 -0.21187,0.40971 -0.577953,0.81889 -0.813517,0.90928 -0.235567,0.0904 -0.662101,0.16435 -0.947854,0.16435 -0.285755,0 -0.811798,-0.29224 -1.168986,-0.64943 z m 84.480251,0.51132 c 0.42136,-0.48494 0.59531,-1.02186 0.59531,-1.83749 0,-0.96197 -0.13449,-1.26553 -0.81405,-1.83733 -0.53646,-0.45141 -1.12984,-0.68498 -1.74014,-0.68498 -0.6708,0 -1.13929,0.2132 -1.69949,0.7734 -0.57172,0.57172 -0.7734,1.02472 -0.7734,1.73718 0,0.53008 0.12206,1.19185 0.27124,1.4706 0.14918,0.27874 0.59566,0.68875 0.99218,0.91113 0.43486,0.24387 1.08844,0.35438 1.647,0.27848 0.55387,-0.0753 1.16529,-0.4012 1.52135,-0.81099 z m -3.12364,-0.34982 c -0.39573,-0.32044 -0.60257,-0.77339 -0.60257,-1.3195 0,-0.45736 0.21689,-1.07123 0.48197,-1.36415 0.29596,-0.32703 0.81615,-0.53258 1.34782,-0.53258 0.62023,0 1.02137,0.19774 1.4142,0.69714 0.3016,0.38342 0.54837,0.92462 0.54837,1.20265 0,0.27803 -0.29225,0.79775 -0.64944,1.15494 -0.35718,0.35719 -0.9393,0.64943 -1.2936,0.64943 -0.3543,0 -0.91533,-0.21957 -1.24675,-0.48793 z M 48.10326,194.6147 c 0.451402,-0.53645 0.684978,-1.12984 0.684978,-1.74014 0,-0.6708 -0.213201,-1.13929 -0.773397,-1.69949 -0.571719,-0.57172 -1.024724,-0.7734 -1.737186,-0.7734 -0.530084,0 -1.192854,0.12259 -1.472822,0.27243 -0.279969,0.14983 -0.699397,0.64055 -0.932064,1.09048 -0.27685,0.53536 -0.365824,1.12297 -0.257483,1.70048 0.09218,0.49137 0.470129,1.12202 0.852847,1.42306 0.44879,0.35302 1.079935,0.54064 1.818725,0.54064 0.938597,0 1.248163,-0.13874 1.816402,-0.81406 z m -3.163507,-0.36454 c -0.357187,-0.35719 -0.649431,-0.93931 -0.649431,-1.29361 0,-0.35429 0.219571,-0.91533 0.487936,-1.24675 0.320442,-0.39573 0.773387,-0.60257 1.319502,-0.60257 0.457361,0 1.071227,0.21689 1.364147,0.48198 0.327031,0.29596 0.532581,0.81614 0.532581,1.34781 0,0.62023 -0.197747,1.02138 -0.69714,1.4142 -0.383426,0.3016 -0.92462,0.54837 -1.202651,0.54837 -0.278031,0 -0.797756,-0.29225 -1.154944,-0.64943 z m 120.351917,0.63796 c 0.38272,-0.30104 0.76067,-0.93169 0.85285,-1.42306 0.10834,-0.57751 0.0194,-1.16512 -0.25749,-1.70048 -0.23266,-0.44993 -0.65209,-0.94065 -0.93206,-1.09048 -0.27997,-0.14984 -0.94274,-0.27243 -1.47282,-0.27243 -0.71246,0 -1.16547,0.20168 -1.73719,0.7734 -0.56019,0.5602 -0.77339,1.02869 -0.77339,1.69949 0,0.6103 0.23357,1.20369 0.68497,1.74014 0.56824,0.67532 0.87781,0.81406 1.8164,0.81406 0.7388,0 1.36994,-0.18762 1.81873,-0.54064 z m -2.82921,-0.5369 c -0.4994,-0.39282 -0.69714,-0.79397 -0.69714,-1.4142 0,-0.53167 0.20555,-1.05185 0.53258,-1.34781 0.29292,-0.26509 0.90678,-0.48198 1.36414,-0.48198 0.54612,0 0.99906,0.20684 1.31951,0.60257 0.26836,0.33142 0.48793,0.89246 0.48793,1.24675 0,0.3543 -0.29224,0.93642 -0.64943,1.29361 -0.35719,0.35718 -0.87691,0.64943 -1.15494,0.64943 -0.27803,0 -0.81923,-0.24677 -1.20265,-0.54837 z m -23.3985,-6.27799 c 0.53837,-0.33476 1.25274,-1.04913 1.5875,-1.5875 l 0.60865,-0.97885 v -33.20521 -33.2052 l -0.60865,-0.97885 c -0.33476,-0.53837 -1.04913,-1.25275 -1.5875,-1.5875 l -0.97885,-0.60865 H 104.8799 71.674695 l -0.97885,0.60865 c -0.538368,0.33475 -1.252743,1.04913 -1.587499,1.5875 l -0.608651,0.97885 -0.07023,32.63259 c -0.04797,22.28938 0.01831,32.96145 0.209143,33.67012 0.153657,0.57063 0.692039,1.45018 1.196403,1.95455 0.504368,0.50436 1.303221,1.02949 1.775233,1.16695 0.521824,0.15196 13.717632,0.23253 33.666536,0.20556 l 32.80833,-0.0444 z m -67.82357,-0.62365 c -0.52991,-0.30727 -1.21452,-1.00536 -1.521354,-1.5513 l -0.557882,-0.99261 v -32.604 -32.60399 l 0.560358,-0.99702 c 0.308195,-0.54836 1.009015,-1.24918 1.557377,-1.55738 l 0.997022,-0.56035 h 32.603989 32.60399 l 0.99702,0.56035 c 0.54837,0.3082 1.24919,1.00902 1.55738,1.55738 l 0.56036,0.99702 v 32.60399 32.604 l -0.56036,0.99702 c -0.30819,0.54836 -1.00901,1.24918 -1.55738,1.55737 l -0.99702,0.56036 -32.64001,-0.006 -32.640018,-0.006 z m 12.715694,-15.23801 c 0.704347,-0.65673 0.88718,-1.2173 1.876899,-5.75469 0.603094,-2.76489 1.210897,-5.47357 1.350674,-6.01927 l 0.254143,-0.99219 h 3.918518 3.918519 l 1.288002,5.84513 c 0.708401,3.21482 1.494645,6.18492 1.747205,6.60023 0.316595,0.5206 0.759846,0.8115 1.427298,0.93671 0.658928,0.12362 1.246118,0.049 1.838678,-0.23353 0.58711,-0.27998 0.96854,-0.71198 1.17144,-1.32678 0.26876,-0.81437 -0.12535,-2.82745 -3.693953,-18.86826 -2.197152,-9.87614 -4.202072,-18.36243 -4.455384,-18.85842 -0.25331,-0.49599 -0.869413,-1.12107 -1.369118,-1.38906 -0.499706,-0.268 -1.301189,-0.48726 -1.781077,-0.48726 -0.479886,0 -1.267717,0.16512 -1.750732,0.36694 -0.483018,0.20181 -1.120564,0.70783 -1.416773,1.12447 -0.385923,0.54284 -1.672007,5.85668 -4.537794,18.74921 -2.199579,9.89542 -3.998989,18.32825 -3.998687,18.73962 2.64e-4,0.47341 0.284435,1.03185 0.773943,1.52135 0.565237,0.56524 1.026993,0.7734 1.715616,0.7734 0.662308,0 1.174049,-0.21615 1.722583,-0.7276 z m -2.829808,-0.47802 c -0.400236,-0.28034 -0.588039,-0.68344 -0.588039,-1.26217 0,-0.46766 1.729049,-8.64646 3.842334,-18.1751 2.113283,-9.52865 3.979029,-17.66632 4.146103,-18.08371 0.167071,-0.41739 0.670443,-0.9825 1.118602,-1.25578 0.44816,-0.27329 1.245262,-0.49733 1.771341,-0.49788 0.569023,-5.2e-4 1.239596,0.22169 1.655318,0.5487 0.384347,0.30233 0.822904,0.78156 0.974571,1.06495 0.15167,0.28339 2.055916,8.50849 4.231661,18.278 2.175743,9.76951 3.955903,17.96109 3.955903,18.20352 0,0.24242 -0.27556,0.69965 -0.61237,1.01606 -0.3368,0.3164 -0.88041,0.57528 -1.20801,0.57528 -0.32761,0 -0.816422,-0.11815 -1.086244,-0.26255 -0.269819,-0.1444 -0.611174,-0.65042 -0.758565,-1.12448 -0.147389,-0.47406 -0.757695,-3.12411 -1.356233,-5.88901 -0.598538,-2.76489 -1.200616,-5.29786 -1.337953,-5.6288 -0.247407,-0.59619 -0.290319,-0.60106 -4.663117,-0.52917 l -4.413409,0.0726 -1.366842,6.14899 c -0.901272,4.05454 -1.53075,6.33011 -1.848057,6.68072 -0.264668,0.29246 -0.793456,0.53174 -1.175086,0.53174 -0.381629,0 -0.95849,-0.18534 -1.281908,-0.41187 z m 13.691956,-17.24906 c -0.0041,-0.25467 -0.697918,-3.55865 -1.541753,-7.34219 -1.127085,-5.05354 -1.639821,-6.89958 -1.932054,-6.95608 -0.315939,-0.0611 -0.707758,1.32735 -1.903986,6.74687 -0.8284,3.75309 -1.503413,7.09168 -1.500026,7.4191 0.0061,0.58652 0.05698,0.59532 3.44574,0.59532 3.102263,0 3.438847,-0.0454 3.432079,-0.46302 z m -6.077913,-0.65832 c 0,-0.18017 0.559832,-2.85884 1.244069,-5.9526 0.684239,-3.09375 1.319657,-5.53595 1.412044,-5.4271 0.09239,0.10885 0.673333,2.51963 1.290989,5.35729 0.617654,2.83765 1.185767,5.42726 1.26247,5.75468 0.137583,0.5873 0.103449,0.59532 -2.535055,0.59532 -1.949542,0 -2.674517,-0.0888 -2.674517,-0.32759 z m 36.003681,18.3396 c 0.51447,-0.51446 0.7734,-1.04178 0.7734,-1.57504 0,-0.44091 -0.12753,-1.08157 -0.28341,-1.42368 -0.15588,-0.34211 -0.54283,-0.78819 -0.8599,-0.99128 -0.35279,-0.22598 -1.57748,-0.41205 -3.15617,-0.47954 l -2.57969,-0.11027 v -15.28429 -15.28428 l 2.57969,-0.11027 c 1.57869,-0.0675 2.80338,-0.25356 3.15617,-0.47954 0.31707,-0.20309 0.70402,-0.64917 0.8599,-0.99128 0.15588,-0.34211 0.28341,-0.98277 0.28341,-1.42368 0,-0.53326 -0.25893,-1.06058 -0.7734,-1.57505 l -0.77339,-0.77339 h -7.57412 c -6.22808,0 -7.71104,0.0708 -8.34457,0.39841 -0.51062,0.26405 -0.86998,0.73251 -1.06557,1.38906 -0.20674,0.69401 -0.21332,1.20438 -0.022,1.70442 0.15023,0.39257 0.5934,0.9236 0.98483,1.18007 0.51054,0.33453 1.4112,0.49691 3.18681,0.57457 l 2.47512,0.10825 v 15.28271 15.28272 l -2.47513,0.10825 c -1.77561,0.0777 -2.67626,0.24004 -3.18681,0.57457 -0.39142,0.25646 -0.83459,0.7875 -0.98483,1.18007 -0.19127,0.49982 -0.18485,1.01015 0.0214,1.70253 0.184,0.61767 0.56403,1.13503 1.01256,1.37847 0.58375,0.31684 2.14417,0.39169 8.34513,0.4003 l 7.62713,0.0106 0.77339,-0.7734 z m -16.67879,-0.5994 c -0.29671,-0.31849 -0.53947,-0.85968 -0.53947,-1.20266 0,-0.34297 0.29224,-0.91583 0.64943,-1.27302 0.60332,-0.60332 0.83814,-0.64943 3.30729,-0.64943 h 2.65786 v -16.13959 -16.13958 h -2.65786 c -2.46915,0 -2.70397,-0.0461 -3.30729,-0.64943 -0.35719,-0.35719 -0.64943,-0.93005 -0.64943,-1.27303 0,-0.34298 0.24276,-0.88417 0.53947,-1.20265 0.53056,-0.56949 0.66393,-0.57906 8.06979,-0.57906 7.17754,0 7.55511,0.0248 8.05948,0.52917 0.29105,0.29104 0.52917,0.87771 0.52917,1.30371 0,0.52162 -0.22765,0.95362 -0.69714,1.32292 -0.59827,0.4706 -1.0673,0.54837 -3.30729,0.54837 h -2.61015 v 16.13958 16.13959 h 2.61015 c 2.23999,0 2.70902,0.0778 3.30729,0.54837 0.46949,0.3693 0.69714,0.8013 0.69714,1.32291 0,0.426 -0.23812,1.01267 -0.52917,1.30372 -0.50437,0.50437 -0.88194,0.52916 -8.05948,0.52916 -7.40586,0 -7.53923,-0.01 -8.06979,-0.57905 z M 45.78347,154.11812 c 0.484772,-0.45542 0.623518,-0.86465 0.623518,-1.83905 0,-1.08521 -0.113574,-1.34884 -0.846969,-1.96595 -0.709401,-0.59692 -1.020899,-0.68935 -1.917815,-0.56905 -0.707241,0.0949 -1.273126,0.3788 -1.666573,0.83621 -0.387142,0.45008 -0.595726,1.03735 -0.595726,1.67728 0,0.54159 0.191333,1.25787 0.425185,1.59174 0.233852,0.33387 0.680336,0.71555 0.992188,0.84817 0.311851,0.13263 0.971028,0.18832 1.464838,0.12377 0.49381,-0.0645 1.178419,-0.38095 1.521354,-0.70312 z m -3.095434,-0.4523 c -0.407516,-0.32999 -0.602575,-0.77157 -0.602575,-1.36415 0,-0.59257 0.195059,-1.03416 0.602575,-1.36414 0.331417,-0.26837 0.937931,-0.48794 1.34781,-0.48794 0.489953,0 0.933081,0.23881 1.293605,0.69714 0.301604,0.38343 0.548371,0.92462 0.548371,1.20265 0,0.27803 -0.292245,0.79776 -0.649432,1.15494 -0.357188,0.35719 -0.93931,0.64944 -1.293605,0.64944 -0.354295,0 -0.915332,-0.21958 -1.246749,-0.48794 z m 125.096134,0.35725 c 0.39704,-0.46158 0.59573,-1.03571 0.59573,-1.7214 0,-0.68568 -0.19869,-1.25981 -0.59573,-1.72139 -0.39344,-0.45741 -0.95933,-0.74135 -1.66657,-0.83621 -0.89692,-0.1203 -1.20842,-0.0279 -1.91782,0.56905 -0.73728,0.62038 -0.84696,0.87791 -0.84696,1.98855 0,1.11065 0.10968,1.36817 0.84696,1.98856 0.7094,0.59692 1.0209,0.68935 1.91782,0.56904 0.70724,-0.0949 1.27313,-0.37879 1.66657,-0.8362 z m -3.35382,-0.56645 c -0.3016,-0.38343 -0.54837,-0.90315 -0.54837,-1.15495 0,-0.25179 0.24677,-0.77151 0.54837,-1.15494 0.36053,-0.45833 0.80366,-0.69714 1.29361,-0.69714 0.40988,0 1.01639,0.21957 1.34781,0.48794 0.40751,0.32998 0.60257,0.77157 0.60257,1.36414 0,0.59258 -0.19506,1.03416 -0.60257,1.36415 -0.33142,0.26836 -0.93793,0.48794 -1.34781,0.48794 -0.48995,0 -0.93308,-0.23881 -1.29361,-0.69714 z M 38.922528,148.38941 c 0.436986,-0.54039 1.420383,-1.30995 2.185328,-1.71013 0.995377,-0.52074 1.777154,-0.72687 2.749658,-0.72502 0.866093,0.002 1.842496,0.2278 2.692578,0.62365 0.733551,0.34158 1.660609,1.00954 2.060128,1.48434 0.39952,0.4748 0.904713,1.2081 1.122652,1.62955 l 0.396253,0.76626 7.20091,-0.0704 7.200911,-0.0704 v -4.7625 -4.7625 l -7.365944,-0.13229 c -7.348774,-0.13198 -7.367122,-0.13375 -7.871354,-0.75692 -0.277975,-0.34354 -0.50541,-0.8335 -0.50541,-1.0888 0,-0.25529 0.245295,-0.77601 0.5451,-1.15715 l 0.5451,-0.69298 7.326254,-0.0703 7.326254,-0.0703 0.07211,-4.82865 0.07211,-4.82864 h -8.416573 c -8.202441,0 -8.44658,-0.0151 -9.596025,-0.59531 -0.77714,-0.39225 -1.381401,-0.95631 -1.771501,-1.65365 -0.517457,-0.92499 -0.592598,-1.44597 -0.596402,-4.13509 l -0.0044,-3.07675 -0.780611,-0.32334 c -0.429335,-0.17784 -1.203053,-0.73361 -1.719373,-1.23506 -0.516319,-0.50144 -1.130586,-1.28266 -1.365036,-1.73603 -0.23445,-0.45338 -0.488899,-1.51497 -0.565442,-2.3591 -0.118114,-1.30258 -0.03113,-1.75559 0.574965,-2.9944 0.392773,-0.8028 1.149276,-1.81832 1.681119,-2.25671 0.531843,-0.43839 1.550403,-0.99085 2.263468,-1.22769 0.844603,-0.28054 1.700842,-0.3752 2.456626,-0.27161 0.638079,0.0875 1.617519,0.39235 2.176535,0.67754 0.559015,0.28519 1.406966,0.96336 1.884335,1.50706 0.477369,0.54369 1.031643,1.38032 1.23172,1.85917 0.200077,0.47885 0.362613,1.49954 0.361192,2.2682 -0.0017,0.90678 -0.220685,1.86593 -0.62365,2.73129 -0.341586,0.73355 -0.980262,1.62652 -1.41928,1.98438 -0.439018,0.35785 -1.170407,0.85346 -1.625308,1.10136 l -0.827094,0.45071 v 2.65814 2.65814 h 8.302815 8.302815 l 0.114874,-2.4474 c 0.08755,-1.86514 0.259004,-2.73065 0.720688,-3.63802 0.333198,-0.65484 1.099378,-1.70666 1.702623,-2.33738 0.603245,-0.63071 1.692122,-1.45619 2.419726,-1.83439 1.066506,-0.55436 1.797272,-0.71 3.770312,-0.80303 l 2.447396,-0.1154 v -8.30281 -8.30282 h -2.658139 -2.658139 l -0.450715,0.827094 c -0.247894,0.454901 -0.743506,1.18629 -1.10136,1.625308 -0.357857,0.439018 -1.250826,1.077694 -1.984375,1.41928 -0.865362,0.402965 -1.824514,0.621973 -2.731291,0.62365 -0.768658,0.0014 -1.789348,-0.161115 -2.2682,-0.361192 -0.478852,-0.200077 -1.31548,-0.754351 -1.859173,-1.23172 -0.543693,-0.477369 -1.221869,-1.32532 -1.507057,-1.884335 -0.285189,-0.559016 -0.590082,-1.538456 -0.67754,-2.176535 -0.103592,-0.755784 -0.0089,-1.612023 0.271607,-2.456626 0.236842,-0.713065 0.789304,-1.731625 1.227694,-2.263468 0.43839,-0.531843 1.453908,-1.288346 2.256707,-1.681119 1.238816,-0.606096 1.69182,-0.693079 2.994406,-0.574965 0.844124,0.07654 1.905717,0.330992 2.359093,0.565442 0.453377,0.23445 1.234594,0.848717 1.736037,1.365036 0.501444,0.51632 1.057217,1.290038 1.235054,1.719373 l 0.32334,0.780611 3.076754,0.0044 c 2.689117,0.0038 3.210094,0.07894 4.135088,0.596402 0.697336,0.3901 1.261396,0.994361 1.653646,1.771501 0.580168,1.149445 0.595313,1.393584 0.595313,9.596023 v 8.41658 l 4.828645,-0.0721 4.828646,-0.0721 0.0703,-7.32626 0.0703,-7.326252 0.692981,-0.5451 c 0.38114,-0.299805 0.901861,-0.5451 1.157155,-0.5451 0.255297,0 0.745255,0.227435 1.0888,0.50541 0.623168,0.504232 0.624933,0.52258 0.756915,7.871352 l 0.132292,7.36595 h 4.762499 4.762507 l 0.0704,-7.20091 0.0704,-7.200915 -0.76627,-0.396253 c -0.42144,-0.217939 -1.15474,-0.723132 -1.62954,-1.122652 -0.4748,-0.399519 -1.142762,-1.326577 -1.484347,-2.060128 -0.395849,-0.850082 -0.622001,-1.826485 -0.62365,-2.692578 -0.0019,-0.972504 0.204285,-1.754281 0.725019,-2.749658 0.400183,-0.764945 1.169748,-1.748342 1.710138,-2.185328 0.54038,-0.436985 1.55241,-0.947775 2.24895,-1.135088 l 1.26644,-0.340569 -1.34937,-0.01786 c -1.08734,-0.01439 -1.55583,0.131706 -2.41262,0.752365 -0.5848,0.423622 -1.331288,1.14662 -1.658866,1.606662 -0.327578,0.460041 -0.759944,1.38252 -0.960811,2.049953 -0.200869,0.667432 -0.365215,1.589699 -0.365215,2.049482 0,0.459783 0.178044,1.435502 0.39565,2.168265 0.22864,0.769912 0.839073,1.836051 1.446128,2.525703 0.577774,0.656375 1.411754,1.343052 1.853314,1.525951 l 0.80283,0.332543 v 6.714775 6.71478 h -4.101047 -4.101041 l -5.29e-4,-6.68073 c -2.65e-4,-5.83283 -0.05913,-6.79743 -0.463021,-7.60021 -0.309406,-0.614969 -0.7821,-1.039608 -1.427329,-1.282219 -0.844333,-0.317475 -1.079132,-0.308449 -1.881569,0.07233 -0.504269,0.239291 -1.052412,0.732595 -1.218094,1.096232 -0.200429,0.440153 -0.301125,2.956483 -0.301125,7.527867 v 6.86672 h -4.223062 -4.223062 l -0.07642,-8.68614 -0.07642,-8.686142 -0.741281,-0.971427 C 78.992346,92.413306 78.277971,91.772363 77.81255,91.523272 77.196695,91.193669 76.132504,91.042473 73.903366,90.96787 L 70.840432,90.865317 70.34464,89.94469 c -0.272685,-0.506346 -0.845013,-1.214481 -1.271844,-1.573634 -0.426828,-0.359153 -1.266169,-0.907981 -1.865201,-1.219617 -0.813403,-0.42316 -1.558055,-0.565602 -2.941233,-0.562621 -1.080599,0.0023 -2.24584,0.174726 -2.797367,0.413869 -0.519906,0.225432 -1.401976,0.810858 -1.960155,1.300945 -0.558179,0.490088 -1.292497,1.487248 -1.631818,2.215911 -0.424488,0.91155 -0.617755,1.810496 -0.619533,2.881645 -0.0014,0.856242 0.137435,2.024147 0.30857,2.595345 0.171135,0.571197 0.780948,1.572254 1.355139,2.22457 0.574192,0.652317 1.526881,1.432385 2.117088,1.733486 0.590206,0.301101 1.749852,0.608821 2.57699,0.683821 1.018021,0.0923 1.93109,-0.006 2.826194,-0.30283 0.727271,-0.24156 1.789798,-0.839354 2.361176,-1.328431 0.571376,-0.489077 1.270048,-1.31851 1.552604,-1.843185 l 0.513739,-0.953954 h 2.188789 2.188792 v 7.54062 7.54063 h -1.563928 c -0.860158,0 -2.270953,0.22005 -3.135098,0.489 -0.864145,0.26896 -2.121522,0.86766 -2.794169,1.33045 -0.672648,0.46279 -1.601645,1.39179 -2.064438,2.06444 -0.462793,0.67264 -1.061493,1.93002 -1.330447,2.79417 -0.268951,0.86414 -0.489003,2.27494 -0.489003,3.13509 v 1.56393 h -7.540624 -7.540625 v -2.18879 -2.18879 l 0.953954,-0.51374 c 0.524675,-0.28255 1.354108,-0.98123 1.843185,-1.5526 0.489077,-0.57138 1.086871,-1.63391 1.328432,-2.36118 0.297305,-0.8951 0.395143,-1.80817 0.302832,-2.82619 -0.075,-0.82714 -0.382723,-1.98679 -0.683824,-2.57699 -0.301101,-0.59021 -1.081169,-1.5429 -1.733486,-2.11709 -0.652316,-0.57419 -1.653373,-1.184 -2.22457,-1.35514 -0.571198,-0.17113 -1.739103,-0.30999 -2.595345,-0.30857 -1.071149,0.002 -1.970095,0.19505 -2.881645,0.61953 -0.728663,0.33932 -1.725823,1.07364 -2.215911,1.63182 -0.490087,0.55818 -1.075513,1.44025 -1.300945,1.96016 -0.239143,0.55152 -0.41154,1.71676 -0.413869,2.79736 -0.003,1.38318 0.139461,2.12783 0.562621,2.94124 0.311636,0.59903 0.860464,1.43837 1.219617,1.8652 0.359153,0.42683 1.067288,0.99916 1.573634,1.27184 l 0.920627,0.49579 0.102509,3.06297 c 0.0746,2.22914 0.225799,3.29333 0.555402,3.90918 0.249091,0.46542 0.890034,1.1798 1.424319,1.5875 l 0.971427,0.74128 8.686142,0.0764 8.686143,0.0764 v 4.22306 4.22306 H 57.00277 c -4.57139,0 -7.08772,0.1007 -7.527873,0.30125 -0.363637,0.16568 -0.856941,0.71382 -1.096232,1.21809 -0.380781,0.80244 -0.389807,1.03723 -0.07233,1.88157 0.242611,0.64523 0.66725,1.11792 1.282219,1.42733 0.80278,0.40389 1.76738,0.46266 7.600207,0.46302 l 6.680728,4.1e-4 v 4.10104 4.10104 h -6.714775 -6.714775 l -0.332543,-0.80283 c -0.182899,-0.44155 -0.869576,-1.27554 -1.525951,-1.85331 -0.689652,-0.60705 -1.755791,-1.21749 -2.525703,-1.44613 -0.732763,-0.2176 -1.708482,-0.39565 -2.168265,-0.39565 -0.459783,0 -1.38205,0.16435 -2.049482,0.36522 -0.667433,0.20087 -1.589912,0.63323 -2.049953,0.96081 -0.460042,0.32758 -1.18304,1.07407 -1.606662,1.65886 -0.620659,0.85679 -0.766755,1.32528 -0.752365,2.41262 l 0.01786,1.34937 0.340569,-1.26643 c 0.187313,-0.69654 0.698103,-1.70857 1.135088,-2.24896 z m 132.790772,-0.0645 c -0.36671,-0.55413 -1.08278,-1.32484 -1.59127,-1.71268 -0.50848,-0.38785 -1.48459,-0.87373 -2.16913,-1.07975 -0.68453,-0.20601 -1.62079,-0.37457 -2.08057,-0.37457 -0.45978,0 -1.4355,0.17805 -2.16827,0.39565 -0.76991,0.22864 -1.83605,0.83908 -2.5257,1.44613 -0.65637,0.57777 -1.34305,1.41176 -1.52595,1.85331 l -0.33254,0.80283 h -6.71478 -6.71477 v -4.10104 -4.10104 h 6.62308 c 5.21627,0 6.82,-0.0823 7.55015,-0.38735 0.62804,-0.26242 1.05115,-0.68434 1.31178,-1.30813 0.2116,-0.50643 0.31559,-1.13579 0.23107,-1.39859 -0.0845,-0.26279 -0.275,-0.73255 -0.42331,-1.04389 -0.14832,-0.31135 -0.55984,-0.69831 -0.9145,-0.8599 -0.41974,-0.19125 -3.04191,-0.29381 -7.51156,-0.29381 h -6.86671 v -4.22306 -4.22306 l 8.68614,-0.0764 8.68614,-0.0764 0.97143,-0.74128 c 0.53428,-0.4077 1.17523,-1.12208 1.42432,-1.5875 0.3296,-0.61585 0.4808,-1.68004 0.5554,-3.90918 l 0.10251,-3.06297 0.92063,-0.49579 c 0.50634,-0.27268 1.21448,-0.84501 1.57363,-1.27184 0.35915,-0.42683 0.90798,-1.26617 1.21962,-1.8652 0.42316,-0.81341 0.5656,-1.55806 0.56262,-2.94124 -0.002,-1.0806 -0.17473,-2.24584 -0.41387,-2.79736 -0.22543,-0.51991 -0.81086,-1.40198 -1.30095,-1.96016 -0.49008,-0.55818 -1.48724,-1.2925 -2.21591,-1.63182 -0.91155,-0.42448 -1.81049,-0.61775 -2.88164,-0.61953 -0.85624,-10e-4 -2.02415,0.13744 -2.59535,0.30857 -0.57119,0.17114 -1.57225,0.78095 -2.22457,1.35514 -0.65231,0.57419 -1.43238,1.52688 -1.73348,2.11709 -0.3011,0.5902 -0.60883,1.74985 -0.68383,2.57699 -0.0923,1.01802 0.006,1.93109 0.30283,2.82619 0.24157,0.72727 0.83936,1.7898 1.32844,2.36118 0.48908,0.57137 1.31851,1.27005 1.84318,1.5526 l 0.95396,0.51374 v 2.18879 2.18879 h -7.54063 -7.54062 v -1.53948 c 0,-0.84671 -0.18664,-2.18616 -0.41475,-2.97656 -0.22811,-0.79039 -0.832,-2.05357 -1.34199,-2.80707 -0.50999,-0.75349 -1.54375,-1.78724 -2.29724,-2.29723 -0.75349,-0.50999 -2.01667,-1.11389 -2.80707,-1.342 -0.79039,-0.22811 -2.12985,-0.41474 -2.97656,-0.41474 h -1.53948 v -7.54063 -7.54062 h 2.1888 2.18879 l 0.51373,0.953954 c 0.28256,0.524675 0.98123,1.354108 1.55261,1.843185 0.57138,0.489077 1.6339,1.086871 2.36117,1.328431 0.89511,0.29731 1.80818,0.39514 2.8262,0.30283 0.82714,-0.075 1.98678,-0.38272 2.57699,-0.683821 0.59021,-0.301101 1.54289,-1.081169 2.11709,-1.733486 0.57419,-0.652316 1.184,-1.653373 1.35513,-2.22457 0.17114,-0.571198 0.31,-1.739103 0.30857,-2.595345 -0.002,-1.071149 -0.19504,-1.970095 -0.61953,-2.881645 -0.33932,-0.728663 -1.07364,-1.725823 -1.63182,-2.215911 -0.55818,-0.490087 -1.44024,-1.075513 -1.96015,-1.300945 -0.55153,-0.239143 -1.71677,-0.41154 -2.79737,-0.413869 -1.38318,-0.003 -2.12783,0.139461 -2.94123,0.562621 -0.59903,0.311636 -1.43837,0.860464 -1.8652,1.219617 -0.42683,0.359153 -0.99916,1.067288 -1.27185,1.573634 l -0.49579,0.920627 -3.06296,0.102509 c -2.22914,0.0746 -3.29333,0.225799 -3.90919,0.555402 -0.46542,0.249091 -1.17979,0.890034 -1.5875,1.424319 l -0.74128,0.971427 -0.0764,8.686146 -0.0764,8.68614 h -4.22306 -4.22307 v -6.86672 c 0,-4.571388 -0.10069,-7.087718 -0.30124,-7.527871 -0.16568,-0.363637 -0.71382,-0.856941 -1.21809,-1.096232 -0.80244,-0.380781 -1.03724,-0.389807 -1.88157,-0.07233 -0.64523,0.242611 -1.11792,0.66725 -1.42733,1.282219 -0.4039,0.80278 -0.46266,1.76738 -0.46302,7.600204 l -4.1e-4,6.68073 h -4.10104 -4.10104 v -6.71478 -6.714769 l 0.80283,-0.332543 c 0.44155,-0.182899 1.27554,-0.869576 1.8533,-1.525951 0.60706,-0.689652 1.21749,-1.755791 1.44613,-2.525703 0.21761,-0.732763 0.39565,-1.708482 0.39565,-2.168265 0,-0.459783 -0.16434,-1.38205 -0.36521,-2.049482 -0.20087,-0.667433 -0.63324,-1.589912 -0.96081,-2.049953 -0.32758,-0.460042 -1.07407,-1.18304 -1.65886,-1.606662 -0.8568,-0.620659 -1.32529,-0.766755 -2.41263,-0.752365 l -1.34936,0.01786 1.26643,0.340569 c 0.69654,0.187313 1.70857,0.698103 2.24896,1.135088 0.54039,0.436986 1.30995,1.420383 1.71013,2.185328 0.52073,0.995377 0.72687,1.777154 0.72502,2.749658 -0.002,0.866093 -0.2278,1.842496 -0.62365,2.692578 -0.34159,0.733551 -1.00954,1.660609 -1.48434,2.060128 -0.47481,0.39952 -1.2081,0.904714 -1.62955,1.122652 l -0.76627,0.396253 0.0704,7.200909 0.0704,7.20091 h 4.7625 4.7625 l 0.13229,-7.36595 c 0.13198,-7.348766 0.13374,-7.367114 0.75691,-7.871346 0.34355,-0.277975 0.83351,-0.50541 1.0888,-0.50541 0.2553,0 0.77602,0.245295 1.15716,0.5451 l 0.69298,0.5451 0.0703,7.326246 0.0703,7.32626 4.82864,0.0721 4.82865,0.0721 v -8.41658 c 0,-8.202433 0.0151,-8.446572 0.59531,-9.596017 0.39225,-0.77714 0.95631,-1.381401 1.65365,-1.771501 0.92499,-0.517457 1.44597,-0.592598 4.13508,-0.596402 l 3.07676,-0.0044 0.32334,-0.780611 c 0.17783,-0.429335 0.73361,-1.203053 1.23505,-1.719373 0.50145,-0.516319 1.28266,-1.130586 1.73604,-1.365036 0.45338,-0.23445 1.51497,-0.488899 2.35909,-0.565442 1.30259,-0.118114 1.75559,-0.03113 2.99441,0.574965 0.8028,0.392773 1.82334,1.153049 2.26787,1.689502 0.44453,0.536453 0.99556,1.615469 1.22451,2.397812 0.25931,0.886104 0.353,1.81806 0.24848,2.471675 -0.0923,0.577079 -0.39573,1.496065 -0.67435,2.042192 -0.27861,0.546127 -0.95141,1.383533 -1.4951,1.860902 -0.54369,0.477369 -1.38032,1.031643 -1.85917,1.23172 -0.47886,0.200077 -1.49955,0.362613 -2.2682,0.361192 -0.90678,-0.0017 -1.86593,-0.220685 -2.7313,-0.62365 -0.73354,-0.341586 -1.62651,-0.980262 -1.98437,-1.41928 -0.35785,-0.439018 -0.85347,-1.170407 -1.10136,-1.625308 l -0.45071,-0.827094 h -2.65814 -2.65814 v 8.302824 8.30281 l 2.44739,0.1154 c 1.97304,0.093 2.70381,0.24867 3.77032,0.80303 0.7276,0.3782 1.81648,1.20368 2.41972,1.83439 0.60325,0.63072 1.36943,1.68254 1.70262,2.33738 0.46169,0.90737 0.63315,1.77288 0.72069,3.63802 l 0.11488,2.4474 h 8.30281 8.30282 v -2.65814 -2.65814 l -0.8271,-0.45071 c -0.4549,-0.2479 -1.18629,-0.74351 -1.62531,-1.10136 -0.43901,-0.35786 -1.07769,-1.25083 -1.41928,-1.98438 -0.40296,-0.86536 -0.62197,-1.82451 -0.62365,-2.73129 -0.001,-0.76866 0.16112,-1.78935 0.3612,-2.2682 0.20007,-0.47885 0.75435,-1.31548 1.23172,-1.85917 0.47736,-0.5437 1.32532,-1.22187 1.88433,-1.50706 0.55902,-0.28519 1.53846,-0.59008 2.17654,-0.67754 0.75578,-0.10359 1.61202,-0.009 2.45662,0.27161 0.71307,0.23684 1.73163,0.7893 2.26347,1.22769 0.53184,0.43839 1.28835,1.45391 1.68112,2.25671 0.6061,1.23881 0.69308,1.69182 0.57496,2.9944 -0.0765,0.84413 -0.33099,1.90572 -0.56544,2.3591 -0.23445,0.45337 -0.84871,1.23459 -1.36503,1.73603 -0.51632,0.50145 -1.29004,1.05722 -1.71938,1.23506 l -0.78061,0.32334 -0.004,3.07675 c -0.004,2.68912 -0.079,3.2101 -0.59641,4.13509 -0.39009,0.69734 -0.99436,1.2614 -1.7715,1.65365 -1.14944,0.58016 -1.39358,0.59531 -9.59602,0.59531 h -8.41657 l 0.0721,4.82864 0.0721,4.82865 7.32625,0.0703 7.32625,0.0703 0.5451,0.69298 c 0.29981,0.38114 0.5451,0.90186 0.5451,1.15715 0,0.2553 -0.22743,0.74526 -0.50541,1.0888 -0.50423,0.62317 -0.52258,0.62494 -7.87135,0.75692 l -7.36594,0.13229 v 4.7625 4.7625 l 7.20091,0.0704 7.20091,0.0704 0.39625,-0.76626 c 0.21794,-0.42145 0.72313,-1.15475 1.12265,-1.62955 0.39952,-0.4748 1.32658,-1.14276 2.06013,-1.48434 0.85008,-0.39585 1.82648,-0.622 2.69258,-0.62365 0.97704,-0.002 1.75627,0.20503 2.77329,0.73633 0.81224,0.42432 1.78268,1.22171 2.27937,1.87292 0.47572,0.6237 0.95414,1.63064 1.06317,2.23765 l 0.19825,1.10364 0.0818,-1.28618 c 0.0649,-1.02017 -0.056,-1.49456 -0.5849,-2.2937 z M 48.014841,113.42828 c 0.560196,-0.5602 0.773397,-1.02869 0.773397,-1.69949 0,-0.6103 -0.233576,-1.20369 -0.684978,-1.74015 -0.568239,-0.67531 -0.877805,-0.81405 -1.816402,-0.81405 -0.73879,0 -1.369935,0.18762 -1.818725,0.54063 -0.382718,0.30105 -0.760664,0.93169 -0.852847,1.42307 -0.108072,0.57608 -0.01963,1.1646 0.254739,1.69518 0.231157,0.447 0.628647,0.9341 0.883312,1.08243 0.254664,0.14832 0.918669,0.27331 1.475566,0.27773 0.772768,0.006 1.195683,-0.1751 1.785938,-0.76535 z m -2.72897,-0.1722 c -0.398333,-0.21488 -0.803593,-0.70686 -0.900578,-1.09328 -0.107612,-0.42876 -0.02839,-0.96616 0.20326,-1.37888 0.208778,-0.37196 0.703575,-0.79024 1.099548,-0.92949 0.575731,-0.20248 0.865598,-0.14491 1.447024,0.28737 0.502965,0.37395 0.751416,0.82207 0.806052,1.45385 0.05382,0.6223 -0.07263,1.04653 -0.396875,1.33148 -0.261721,0.23002 -0.71398,0.48603 -1.005022,0.56893 -0.291042,0.0829 -0.855076,-0.0251 -1.253409,-0.23998 z m 119.669099,0.67317 c 0.27997,-0.14984 0.6994,-0.64055 0.93206,-1.09048 0.27685,-0.53537 0.36583,-1.12297 0.25749,-1.70048 -0.0922,-0.49138 -0.47013,-1.12202 -0.85285,-1.42307 -0.44879,-0.35301 -1.07993,-0.54063 -1.81873,-0.54063 -0.93859,0 -1.24816,0.13874 -1.8164,0.81405 -0.4514,0.53646 -0.68497,1.12985 -0.68497,1.74015 0,0.6708 0.2132,1.13929 0.77339,1.69949 0.57172,0.57172 1.02473,0.7734 1.73719,0.7734 0.53008,0 1.19285,-0.1226 1.47282,-0.27243 z m -2.00822,-0.5085 c -0.29609,-0.12002 -0.69117,-0.40235 -0.87794,-0.6274 -0.18678,-0.22506 -0.30171,-0.79215 -0.2554,-1.26021 0.0552,-0.55789 0.33464,-1.03717 0.81127,-1.39146 0.58139,-0.43216 0.87132,-0.48972 1.44702,-0.28725 0.39598,0.13925 0.89077,0.55753 1.09955,0.92949 0.23214,0.41359 0.31092,0.94995 0.20279,1.38076 -0.10084,0.4018 -0.51054,0.87703 -0.95359,1.10614 -0.42722,0.22093 -0.81245,0.39414 -0.85606,0.38492 -0.0436,-0.009 -0.32154,-0.11497 -0.61764,-0.23499 z M 66.006506,95.436613 c 0.571719,-0.571719 0.773398,-1.024724 0.773398,-1.737186 0,-0.530084 -0.122592,-1.192854 -0.272426,-1.472822 -0.149836,-0.279969 -0.640551,-0.699397 -1.090477,-0.932064 -0.535369,-0.27685 -1.122976,-0.365824 -1.700482,-0.257483 -0.491377,0.09218 -1.122021,0.470129 -1.423067,0.852847 -0.353018,0.44879 -0.540631,1.079935 -0.540631,1.818725 0,0.938597 0.138737,1.248163 0.81405,1.816402 0.536461,0.451402 1.129846,0.684978 1.740145,0.684978 0.670798,0 1.139293,-0.213201 1.69949,-0.773397 z M 62.830358,94.71912 c -0.301604,-0.383426 -0.548371,-0.92462 -0.548371,-1.202651 0,-0.278031 0.292245,-0.797756 0.649432,-1.154944 0.357188,-0.357187 0.883231,-0.649431 1.168986,-0.649431 0.285753,0 0.712287,0.07396 0.947854,0.164354 0.235564,0.0904 0.601647,0.499571 0.813517,0.909281 0.211868,0.40971 0.30843,0.960829 0.21458,1.224709 -0.09385,0.263879 -0.349584,0.68814 -0.568301,0.942801 -0.228137,0.265632 -0.766776,0.463021 -1.263497,0.463021 -0.620234,0 -1.021378,-0.197747 -1.4142,-0.69714 z m 84.362572,0.805912 c 0.67532,-0.568239 0.81405,-0.877805 0.81405,-1.816402 0,-0.73879 -0.18761,-1.369935 -0.54063,-1.818725 -0.30104,-0.382718 -0.93169,-0.760664 -1.42306,-0.852847 -0.57751,-0.108341 -1.16512,-0.01937 -1.70049,0.257483 -0.44992,0.232667 -0.94064,0.652095 -1.09047,0.932064 -0.14984,0.279968 -0.27243,0.942738 -0.27243,1.472822 0,0.712462 0.20168,1.165467 0.7734,1.737186 0.5602,0.560196 1.02869,0.773397 1.69949,0.773397 0.6103,0 1.20368,-0.233576 1.74014,-0.684978 z m -3.0255,-0.641353 c -0.26508,-0.29292 -0.48197,-0.906786 -0.48197,-1.364147 0,-0.546115 0.20684,-0.99906 0.60257,-1.319502 0.33142,-0.268365 0.89245,-0.487936 1.24675,-0.487936 0.3543,0 0.93642,0.292244 1.2936,0.649431 0.35719,0.357188 0.64944,0.876913 0.64944,1.154944 0,0.278031 -0.24677,0.819225 -0.54837,1.202651 -0.39283,0.499393 -0.79397,0.69714 -1.4142,0.69714 -0.53167,0 -1.05186,-0.20555 -1.34782,-0.532581 z m -37.41542,-1.737693 c 0.48294,-0.514064 0.64143,-0.977365 0.64143,-1.874992 0,-0.978233 -0.13324,-1.306827 -0.74235,-1.830767 -0.50951,-0.438258 -1.06507,-0.63855 -1.77119,-0.63855 -0.68569,0 -1.25981,0.198688 -1.7214,0.595726 -0.4574,0.393447 -0.74134,0.959332 -0.8362,1.666573 -0.1203,0.896916 -0.0279,1.208414 0.56905,1.917815 0.61711,0.733395 0.88073,0.846969 1.96595,0.846969 1.00517,0 1.38026,-0.135169 1.89471,-0.682774 z m -3.02705,-0.394763 c -0.45833,-0.360524 -0.69714,-0.803652 -0.69714,-1.293605 0,-0.409879 0.21957,-1.016393 0.48794,-1.34781 0.32998,-0.407516 0.77157,-0.602575 1.36414,-0.602575 0.59258,0 1.03416,0.195059 1.36415,0.602575 0.26836,0.331417 0.48794,0.892454 0.48794,1.246749 0,0.354295 -0.29225,0.936417 -0.64944,1.293605 -0.35719,0.357187 -0.87691,0.649432 -1.15494,0.649432 -0.27803,0 -0.81923,-0.246767 -1.20265,-0.548371 z"
       id="path14135" /></g></svg>
