<?xml version="1.0" encoding="UTF-8" standalone="no"?>
<!-- Uploaded to: SVG Repo, www.svgrepo.com, Generator: SVG Repo Mixer Tools -->

<svg
   fill="#000000"
   width="800px"
   height="800px"
   viewBox="0 0 32 32"
   version="1.1"
   id="svg4"
   sodipodi:docname="close-svgrepo-com.svg"
   inkscape:version="1.2.1 (9c6d41e410, 2022-07-14)"
   xmlns:inkscape="http://www.inkscape.org/namespaces/inkscape"
   xmlns:sodipodi="http://sodipodi.sourceforge.net/DTD/sodipodi-0.dtd"
   xmlns="http://www.w3.org/2000/svg"
   xmlns:svg="http://www.w3.org/2000/svg">
  <defs
     id="defs8" />
  <sodipodi:namedview
     id="namedview6"
     pagecolor="#ffffff"
     bordercolor="#000000"
     borderopacity="0.25"
     inkscape:showpageshadow="2"
     inkscape:pageopacity="0.0"
     inkscape:pagecheckerboard="0"
     inkscape:deskcolor="#d1d1d1"
     showgrid="false"
     inkscape:zoom="1.04625"
     inkscape:cx="354.59976"
     inkscape:cy="400.95579"
     inkscape:window-width="1419"
     inkscape:window-height="1040"
     inkscape:window-x="72"
     inkscape:window-y="17"
     inkscape:window-maximized="0"
     inkscape:current-layer="svg4" />
  <path
     d="M16 0c-8.836 0-16 7.163-16 16s7.163 16 16 16c8.837 0 16-7.163 16-16s-7.163-16-16-16zM16 30.032c-7.72 0-14-6.312-14-14.032s6.28-14 14-14 14 6.28 14 14-6.28 14.032-14 14.032zM21.657 10.344c-0.39-0.39-1.023-0.39-1.414 0l-4.242 4.242-4.242-4.242c-0.39-0.39-1.024-0.39-1.415 0s-0.39 1.024 0 1.414l4.242 4.242-4.242 4.242c-0.39 0.39-0.39 1.024 0 1.414s1.024 0.39 1.415 0l4.242-4.242 4.242 4.242c0.39 0.39 1.023 0.39 1.414 0s0.39-1.024 0-1.414l-4.242-4.242 4.242-4.242c0.391-0.391 0.391-1.024 0-1.414z"
     id="path2" />
  <path
     style="fill:#ffffff;stroke:#000000;stroke-width:0.9573;stroke-linecap:round;paint-order:markers fill stroke"
     d="M 375.62724,798.92587 C 318.5438,794.82608 265.31102,780.03893 216.48274,754.71827 89.588312,688.91518 6.3751124,558.78442 1.1422592,417.96373 -0.60315527,370.99309 4.0618638,331.34206 16.345743,288.73945 55.324016,153.55609 164.69196,47.739028 301.44632,12.895331 335.03356,4.3376226 362.84547,0.97318624 400,0.97318624 c 29.10094,0 41.27345,0.96234926 67.01246,5.29795636 C 607.09757,29.867768 724.91805,127.55469 774.63593,261.32686 c 10.47099,28.17348 18.01802,59.2442 22.19154,91.36131 1.39731,10.75293 1.73884,20.04549 1.73884,47.31183 0,27.26634 -0.34153,36.5589 -1.73884,47.31183 -8.36812,64.39632 -29.39041,121.18008 -64.22399,173.4767 -66.13968,99.29734 -169.8745,162.58578 -289.11483,176.38849 -12.3317,1.42746 -56.491,2.56549 -67.86141,1.74885 z m 60.80931,-49.6112 c 80.13014,-8.41486 153.25195,-43.39888 210.66185,-100.78796 53.67703,-53.65755 88.60516,-122.56406 99.39651,-196.09024 5.75222,-39.19237 4.69102,-85.00159 -2.81202,-121.38819 C 729.11752,260.41249 695.99836,199.82308 644.1234,148.91054 515.18674,22.365961 308.88464,16.028782 171.56511,134.3945 104.17657,192.48162 62.229714,271.79733 51.569155,361.29032 49.86568,375.5906 49.3278,410.58503 50.570108,426.28816 c 5.673813,71.71857 31.561957,137.49043 75.946722,192.95152 58.645,73.28001 143.30709,119.93561 235.989,130.04885 16.62643,1.81424 56.76846,1.82843 73.93072,0.0261 z"
     id="path860"
     transform="scale(0.04)" />
  <path
     style="fill:#ffffff;stroke:#000000;stroke-width:0.9573;stroke-linecap:round;paint-order:markers fill stroke"
     d="m 268.22222,546.80352 c -9.5221,-3.54507 -16.1359,-12.93438 -16.13193,-22.90175 10e-4,-3.38768 0.69035,-7.47457 1.63268,-9.68433 1.17745,-2.76112 16.93909,-19.1567 56.73823,-59.02031 L 365.56906,400 310.4612,344.80287 c -39.77217,-39.8366 -55.56205,-56.26107 -56.73994,-59.02031 -2.67669,-6.27022 -2.25872,-14.38421 1.05771,-20.533 6.66693,-12.36074 21.76474,-16.98924 33.1992,-10.17779 2.20938,1.31612 28.10163,26.50639 57.53834,55.97839 29.43671,29.47199 53.95429,53.58544 54.48349,53.58544 0.5292,0 25.04678,-24.11345 54.48349,-53.58544 29.43671,-29.472 55.32896,-54.66227 57.53834,-55.97839 4.79964,-2.85911 12.55506,-3.85959 18.16498,-2.34334 9.74859,2.63485 17.75874,12.94745 17.82919,22.95403 0.076,10.7906 2.20215,8.27533 -58.02436,68.64251 L 434.44635,400 l 55.54529,55.67503 c 60.22651,60.36719 58.10033,57.85191 58.02436,68.6425 -0.0704,10.00659 -8.0806,20.31919 -17.82919,22.95404 -5.60992,1.51625 -13.36534,0.51578 -18.16498,-2.34334 -2.20938,-1.31612 -28.10163,-26.50639 -57.53834,-55.97839 C 425.04678,459.47785 400.5292,435.3644 400,435.3644 c -0.5292,0 -25.04678,24.11345 -54.48349,53.58544 -29.43671,29.472 -55.36637,54.68419 -57.62146,56.0271 -5.08727,3.02946 -14.17537,3.87328 -19.67283,1.82658 z"
     id="path862"
     transform="scale(0.04)" />
</svg>
